<?xml version="1.0" encoding="utf-8"?>
<!-- Generator: Adobe Illustrator 25.4.1, SVG Export Plug-In . SVG Version: 6.00 Build 0)  -->
<svg version="1.1" id="Capa_1" xmlns="http://www.w3.org/2000/svg" xmlns:xlink="http://www.w3.org/1999/xlink" x="0px" y="0px"
	 viewBox="0 0 384.21 384.21" style="enable-background:new 0 0 384.21 384.21;" xml:space="preserve">
<style type="text/css">
	.st0{fill:#1E1E1C;}
</style>
<path class="st0" d="M192.11,33.44c-87.49,0-158.67,71.18-158.67,158.67c0,22.23,17.54,42.45,49.4,56.95
	c11.73,5.34,24.99,9.7,39.28,13.04c3.34,14.29,7.7,27.55,13.04,39.28c3.82,8.39,8.04,15.78,12.59,22.13
	c-36.77-12.39-67.36-39.9-83.19-76.9c-2.17-5.08-8.05-7.43-13.13-5.26c-5.08,2.17-7.43,8.05-5.26,13.13
	c25.03,58.5,82.32,96.3,145.94,96.3c87.49,0,158.67-71.18,158.67-158.67C350.77,104.62,279.6,33.44,192.11,33.44z M323.5,147.74
	c-6.35-4.55-13.73-8.77-22.12-12.58c-11.73-5.34-24.99-9.7-39.28-13.04c-3.34-14.29-7.7-27.55-13.04-39.28
	c-3.82-8.39-8.04-15.78-12.58-22.12C277.31,74.54,309.67,106.9,323.5,147.74z M147.79,60.7c-6.76,9.4-12.78,21.07-17.81,34.78
	c-1.9,5.19,0.76,10.93,5.95,12.83c5.18,1.9,10.93-0.76,12.83-5.95c11.23-30.64,27.43-48.93,43.34-48.93
	c13.72,0,27.85,13.74,38.75,37.69c3.72,8.17,6.92,17.2,9.59,26.87c-15.42-2.32-31.68-3.55-48.34-3.55
	c-22.17,0-43.65,2.16-63.36,6.23c-0.14,0.02-0.27,0.05-0.41,0.08c-16.68,3.47-32.09,8.3-45.5,14.41
	c-8.39,3.82-15.78,8.04-22.12,12.58C74.55,106.89,106.93,74.51,147.79,60.7z M249.77,192.11c0,18.51-1.58,36.43-4.58,53.06
	c-16.85,3.05-34.67,4.61-53.09,4.61c-18.52,0-36.46-1.58-53.08-4.58c-3-16.63-4.58-34.56-4.58-53.08c0-18.42,1.55-36.24,4.6-53.09
	c16.62-3,34.55-4.58,53.07-4.58c18.52,0,36.45,1.58,53.08,4.58C248.19,155.65,249.77,173.59,249.77,192.11z M91.12,230.85
	c-23.95-10.9-37.69-25.02-37.69-38.75s13.74-27.85,37.69-38.75c8.17-3.72,17.19-6.92,26.85-9.58c-2.35,15.52-3.53,31.71-3.53,48.33
	c0,16.65,1.23,32.91,3.55,48.34C108.32,237.78,99.3,234.57,91.12,230.85z M153.36,293.09c-3.72-8.17-6.92-17.2-9.59-26.87
	c15.42,2.32,31.68,3.55,48.34,3.55c16.62,0,32.81-1.2,48.33-3.54c-2.67,9.67-5.87,18.69-9.59,26.86
	c-10.9,23.95-25.02,37.69-38.75,37.69C178.38,330.77,164.26,317.04,153.36,293.09z M236.47,323.5c4.55-6.35,8.77-13.73,12.58-22.12
	c13.36-29.35,20.72-68.16,20.72-109.27c0-16.65-1.23-32.91-3.55-48.34c9.67,2.67,18.69,5.87,26.87,9.59
	c23.95,10.9,37.69,25.02,37.69,38.75c0,16.12-18.67,32.46-49.94,43.71c-5.2,1.87-7.89,7.6-6.02,12.79c1.87,5.2,7.6,7.89,12.79,6.02
	c14.2-5.11,26.25-11.27,35.91-18.21C309.69,277.28,277.32,309.67,236.47,323.5z"/>
</svg>
