<?xml version="1.0" encoding="utf-8"?>
<!-- Generator: Adobe Illustrator 25.4.1, SVG Export Plug-In . SVG Version: 6.00 Build 0)  -->
<svg version="1.1" id="Capa_1" xmlns="http://www.w3.org/2000/svg" xmlns:xlink="http://www.w3.org/1999/xlink" x="0px" y="0px"
	 viewBox="0 0 384.21 384.21" style="enable-background:new 0 0 384.21 384.21;" xml:space="preserve">
<style type="text/css">
	.st0{fill:#1E1E1C;}
</style>
<g>
	<path class="st0" d="M102.11,326.11h-44v-44c0-5.52-4.48-10-10-10s-10,4.48-10,10v54c0,5.52,4.48,10,10,10h54c5.52,0,10-4.48,10-10
		S107.63,326.11,102.11,326.11z"/>
	<path class="st0" d="M336.11,272.11c-5.52,0-10,4.48-10,10v44h-44c-5.52,0-10,4.48-10,10s4.48,10,10,10h54c5.52,0,10-4.48,10-10
		v-54C346.11,276.58,341.63,272.11,336.11,272.11z"/>
	<path class="st0" d="M336.11,38.11h-54c-5.52,0-10,4.48-10,10s4.48,10,10,10h44v44c0,5.52,4.48,10,10,10s10-4.48,10-10v-54
		C346.11,42.58,341.63,38.11,336.11,38.11z"/>
	<path class="st0" d="M48.11,112.11c5.52,0,10-4.48,10-10v-44h44c5.52,0,10-4.48,10-10s-4.48-10-10-10h-54c-5.52,0-10,4.48-10,10v54
		C38.11,107.63,42.58,112.11,48.11,112.11z"/>
	<rect x="39.11" y="182.11" class="st0" width="306" height="20"/>
	<path class="st0" d="M135.86,272.11h-23.75v-23.75c0-5.52-4.48-10-10-10s-10,4.48-10,10v33.75c0,5.52,4.48,10,10,10h33.75
		c5.52,0,10-4.48,10-10S141.38,272.11,135.86,272.11z"/>
	<path class="st0" d="M292.11,282.11v-33.75c0-5.52-4.48-10-10-10s-10,4.48-10,10v23.75h-23.75c-5.52,0-10,4.48-10,10s4.48,10,10,10
		h33.75C287.63,292.11,292.11,287.63,292.11,282.11z"/>
	<path class="st0" d="M248.36,112.11h23.75v23.75c0,5.52,4.48,10,10,10s10-4.48,10-10v-33.75c0-5.52-4.48-10-10-10h-33.75
		c-5.52,0-10,4.48-10,10S242.83,112.11,248.36,112.11z"/>
	<path class="st0" d="M92.11,102.11v33.75c0,5.52,4.48,10,10,10s10-4.48,10-10v-23.75h23.75c5.52,0,10-4.48,10-10s-4.48-10-10-10
		h-33.75C96.58,92.11,92.11,96.58,92.11,102.11z"/>
</g>
</svg>
