<?xml version="1.0" encoding="utf-8"?>
<!-- Generator: Adobe Illustrator 25.4.1, SVG Export Plug-In . SVG Version: 6.00 Build 0)  -->
<svg version="1.1" id="Capa_1" xmlns="http://www.w3.org/2000/svg" xmlns:xlink="http://www.w3.org/1999/xlink" x="0px" y="0px"
	 viewBox="0 0 384.21 384.21" style="enable-background:new 0 0 384.21 384.21;" xml:space="preserve">
<style type="text/css">
	.st0{fill:#1E1E1C;}
</style>
<path class="st0" d="M341.1,249.43V138.11c13.05-4.12,22.37-16.73,21.44-31.32c-0.95-14.88-12.72-27.11-27.56-28.58
	c-9.88-0.98-18.93,2.76-25.19,9.22L222.75,43.9c0.06-0.76,0.1-1.53,0.1-2.31c0-16.95-13.79-30.74-30.74-30.74
	s-30.74,13.79-30.74,30.74c0,0.78,0.04,1.54,0.1,2.31L74.42,87.43c-6.26-6.46-15.31-10.2-25.19-9.22
	c-14.84,1.47-26.61,13.7-27.56,28.58c-0.93,14.59,8.39,27.2,21.44,31.32v111.32c-13.44,4.24-22.91,17.48-21.33,32.62
	c1.48,14.08,12.66,25.48,26.71,27.2c10.74,1.31,20.57-2.96,26.98-10.29l86.14,39.76c-0.16,1.28-0.26,2.57-0.26,3.89
	c0,16.95,13.79,30.74,30.74,30.74s30.74-13.79,30.74-30.74c0-1.32-0.09-2.62-0.26-3.89l86.14-39.76
	c6.41,7.33,16.24,11.6,26.98,10.29c14.05-1.72,25.24-13.12,26.71-27.2C364.01,266.91,354.53,253.67,341.1,249.43z M344.02,107.2
	c1.01,7.99-5.72,14.73-13.7,13.75c-5.41-0.66-9.81-4.97-10.59-10.36c-0.42-2.88,0.18-5.59,1.48-7.86c1.46-1.84,3.11-3.46,4.91-4.78
	c2.25-1.2,4.91-1.72,7.72-1.27C339.15,97.53,343.35,101.88,344.02,107.2z M190.51,29.44c8.01-1.02,14.78,5.75,13.76,13.76
	c-0.69,5.46-5.1,9.87-10.56,10.56c-8.01,1.02-14.78-5.75-13.76-13.76C180.64,34.54,185.05,30.13,190.51,29.44z M168.37,61.11
	c5.64,6.85,14.19,11.23,23.74,11.23c9.55,0,18.09-4.38,23.74-11.23l85.67,42.83c-0.25,1.58-0.39,3.2-0.39,4.85s0.13,3.27,0.39,4.85
	l-87.33,43.67c-5.59-5.77-13.42-9.38-22.07-9.38c-8.65,0-16.48,3.6-22.07,9.38L82.7,113.64c0.25-1.58,0.39-3.2,0.39-4.85
	s-0.13-3.27-0.39-4.85L168.37,61.11z M193.7,190.83c-8.01,1.02-14.78-5.75-13.76-13.76c0.69-5.46,5.1-9.87,10.56-10.56
	c8.01-1.02,14.77,5.75,13.76,13.76C203.57,185.72,199.16,190.13,193.7,190.83z M50.75,96.63c8.01-1.02,14.77,5.75,13.76,13.76
	c-0.69,5.46-5.1,9.87-10.56,10.56c-8.01,1.02-14.78-5.75-13.76-13.76C40.88,101.73,45.29,97.32,50.75,96.63z M53.95,290.9
	c-8.01,1.02-14.78-5.75-13.76-13.76c0.7-5.46,5.11-9.87,10.56-10.56c8.01-1.02,14.77,5.75,13.76,13.76
	C63.82,285.8,59.41,290.21,53.95,290.9z M82.91,282.04c0.12-1.08,0.18-2.18,0.18-3.29c0-13.73-9.05-25.39-21.5-29.32V138.11
	c4.93-1.56,9.32-4.33,12.83-7.95l87.33,43.67c-0.25,1.58-0.39,3.2-0.39,4.85c0,13.73,9.05,25.39,21.5,29.32v105.31
	c-5.24,1.66-9.88,4.68-13.5,8.65L82.91,282.04z M192.11,354.87c-7.22,0-13.01-6.28-12.18-13.67c0.63-5.61,5.17-10.15,10.78-10.78
	c7.39-0.82,13.66,4.96,13.66,12.18c0,0.69-0.07,1.36-0.18,2.02c-0.01,0.03-0.02,0.07-0.04,0.11c0,0.08-0.02,0.17-0.02,0.25
	C203.02,350.61,198.05,354.87,192.11,354.87z M214.84,321.94c-3.61-3.97-8.25-7-13.5-8.65V207.99c12.45-3.93,21.5-15.59,21.5-29.32
	c0-1.65-0.13-3.27-0.39-4.85l87.33-43.67c3.51,3.63,7.9,6.4,12.83,7.95v111.32c-12.45,3.93-21.5,15.59-21.5,29.32
	c0,1.11,0.06,2.21,0.18,3.29L214.84,321.94z M333.18,290.94c-6.35,0.67-11.85-3.55-13.24-9.34c0.01-3.12,0.54-6.23,1.49-8.85
	l-0.36,0.17c2.08-3.83,6.13-6.43,10.78-6.43c7.23,0,13.01,6.28,12.18,13.67C343.41,285.79,338.82,290.34,333.18,290.94z"/>
</svg>
