<?xml version="1.0" encoding="utf-8"?>
<!-- Generator: Adobe Illustrator 25.4.1, SVG Export Plug-In . SVG Version: 6.00 Build 0)  -->
<svg version="1.1" id="Capa_1" xmlns="http://www.w3.org/2000/svg" xmlns:xlink="http://www.w3.org/1999/xlink" x="0px" y="0px"
	 viewBox="0 0 107.75 20.67" style="enable-background:new 0 0 107.75 20.67;" xml:space="preserve">
<style type="text/css">
	.st0{fill:#FFFFFF;}
</style>
<g>
	<g>
		<g>
			<path class="st0" d="M32.89,13.76c0.15,1.76,1.14,3.15,4.1,3.15c2.27,0,3.18-0.8,3.18-2.25c0-1.24-0.72-1.91-2.35-2.14
				l-2.99-0.44c-2.25-0.31-3.51-1.5-3.51-3.49c0-2.4,1.91-3.87,5.16-3.87c3.38,0,5.32,1.7,5.47,4.13h-2.04
				C39.78,7.51,38.8,6.3,36.42,6.3c-2.19,0-3.1,0.88-3.1,2.14c0,0.9,0.46,1.68,2.09,1.91l2.74,0.39c2.97,0.44,4.05,1.7,4.05,3.82
				c0,2.63-1.83,3.92-5.27,3.92c-4.21,0-5.91-2.01-5.96-4.72H32.89z"/>
			<path class="st0" d="M48.48,11.85l-2.66,2.53v3.69h-2.07V0h2.07v12.08c0.39-0.49,0.83-0.96,1.24-1.34l5.81-5.58h2.56v0.05
				l-5.65,5.4l6.2,7.46h-2.61L48.48,11.85z"/>
			<path class="st0" d="M56.02,14.66c0-2.09,1.14-3.41,3.92-3.87l3.28-0.54c1.37-0.23,1.94-0.59,1.94-1.57
				c0-1.32-0.67-2.32-3.18-2.32c-2.53,0-3.49,1.19-3.61,2.87h-2.04c0.08-2.74,2.01-4.49,5.58-4.49c3.54,0,5.14,1.63,5.14,3.95v6.2
				c0,0.93,0.03,1.94,0.15,3.2h-1.88c-0.1-1.11-0.18-2.07-0.18-3.02c-0.49,1.55-1.86,3.36-4.85,3.36
				C57.8,18.41,56.02,17.12,56.02,14.66z M65.16,11.95v-1.11c-0.65,0.46-1.34,0.67-2.32,0.88l-2.14,0.44
				c-1.76,0.36-2.58,1.03-2.58,2.43c0,1.47,1.06,2.19,2.58,2.19C63.74,16.78,65.16,14.41,65.16,11.95z"/>
			<path class="st0" d="M80.77,9.84v8.24h-2.07v-8c0-2.76-1.21-3.59-3.1-3.59c-2.87,0-4.39,2.22-4.39,6.66v4.93h-2.07V5.16h2.07
				v3.38c0.8-2.35,2.4-3.79,4.96-3.79C79.41,4.75,80.77,6.51,80.77,9.84z"/>
			<path class="st0" d="M82.4,14.66c0-2.09,1.14-3.41,3.92-3.87l3.28-0.54c1.37-0.23,1.94-0.59,1.94-1.57
				c0-1.32-0.67-2.32-3.18-2.32c-2.53,0-3.49,1.19-3.61,2.87h-2.04c0.08-2.74,2.01-4.49,5.58-4.49c3.54,0,5.14,1.63,5.14,3.95v6.2
				c0,0.93,0.03,1.94,0.15,3.2h-1.88c-0.1-1.11-0.18-2.07-0.18-3.02c-0.49,1.55-1.86,3.36-4.85,3.36
				C84.18,18.41,82.4,17.12,82.4,14.66z M91.54,11.95v-1.11c-0.65,0.46-1.34,0.67-2.32,0.88l-2.14,0.44
				c-1.76,0.36-2.58,1.03-2.58,2.43c0,1.47,1.06,2.19,2.58,2.19C90.12,16.78,91.54,14.41,91.54,11.95z"/>
			<path class="st0" d="M100.26,11.85l-2.66,2.53v3.69h-2.07V0h2.07v12.08c0.39-0.49,0.83-0.96,1.24-1.34l5.81-5.58h2.56v0.05
				l-5.65,5.4l6.2,7.46h-2.61L100.26,11.85z"/>
		</g>
	</g>
	<g>
		<g>
			<path class="st0" d="M19.72,10.71l-9.43,9.43c-0.23,0.23-0.54,0.35-0.86,0.35H5.33c-0.32,0-0.63-0.13-0.86-0.35l-4.11-4.11
				C0.13,15.8,0,15.49,0,15.17v-4.11c0-0.32,0.13-0.63,0.35-0.86l7.37-7.37c0.47-0.47,1.24-0.47,1.71,0l0,0
				c0.47,0.47,0.47,1.24,0,1.71L2.78,11.2c-0.23,0.23-0.35,0.54-0.35,0.86v2.11c0,0.32,0.13,0.63,0.35,0.86l2.69,2.69
				c0.23,0.23,0.54,0.35,0.86,0.35h2.11c0.32,0,0.63-0.13,0.86-0.35L18.01,9c0.47-0.47,1.24-0.47,1.71,0l0,0
				C20.2,9.47,20.2,10.24,19.72,10.71z"/>
			<path class="st0" d="M25.65,13.01l-7.3,7.3c-0.47,0.47-1.24,0.47-1.71,0h0c-0.47-0.47-0.47-1.24,0-1.71l6.59-6.59
				c0.23-0.23,0.35-0.54,0.35-0.86V9.05c0-0.32-0.13-0.63-0.35-0.86L20.53,5.5C20.3,5.27,20,5.14,19.67,5.14h-2.11
				c-0.32,0-0.63,0.13-0.86,0.35l-8.72,8.72c-0.47,0.47-1.24,0.47-1.71,0l0,0c-0.47-0.47-0.47-1.24,0-1.71l9.43-9.43
				c0.23-0.23,0.54-0.35,0.86-0.35h4.11c0.32,0,0.63,0.13,0.86,0.35l4.11,4.11C25.88,7.41,26,7.72,26,8.04v4.11
				C26,12.48,25.88,12.79,25.65,13.01z"/>
		</g>
	</g>
</g>
</svg>
