<?xml version="1.0" encoding="utf-8"?>
<!-- Generator: Adobe Illustrator 25.4.1, SVG Export Plug-In . SVG Version: 6.00 Build 0)  -->
<svg version="1.1" id="Capa_1" xmlns="http://www.w3.org/2000/svg" xmlns:xlink="http://www.w3.org/1999/xlink" x="0px" y="0px"
	 viewBox="0 0 1516.67 1516.67" style="enable-background:new 0 0 1516.67 1516.67;" xml:space="preserve">
<style type="text/css">
	.st0{fill:#1D1D1B;}
</style>
<g>
	<path class="st0" d="M1188.59,411.51c-5.27,7.13-9.76,15.03-15.92,21.28c-35.93,36.44-72.23,72.52-108.49,108.65
		c-2.17,2.16-5.03,3.62-6.22,4.45c95.34,163.27,83.18,315.43-37.24,462.12c2.52,1.85,6.75,4.27,10.12,7.56
		c15.07,14.75,30.02,29.63,44.77,44.71c19.45,19.88,19.63,49.42,0.68,68.08c-18.64,18.36-47.8,17.88-67.45-1.44
		c-18.65-18.33-37.06-36.91-55.45-55.5c-2.15-2.17-3.45-5.19-4.79-7.28c-129.17,78.72-285.91,67.8-397.57-9.1
		c-2.1,1.98-4.36,4-6.5,6.14c-18.91,18.87-37.78,37.78-56.69,56.65c-11.97,11.95-26.35,18.55-43.32,16.72
		c-34.68-3.74-51.56-40.3-33.09-71.3c3.12-5.23,7.41-9.9,11.73-14.26c18.76-18.98,37.74-37.76,57.14-57.12
		c-3.69-4.64-7.24-8.87-10.53-13.3c-77.99-104.64-97.49-219.1-57.38-343.43c1.73-5.37,0.81-8.51-3.1-12.35
		c-23.65-23.27-47.1-46.75-70.47-70.31c-9.68-9.75-13.19-21.44-9.02-34.8c3.84-12.3,12.39-19.98,24.88-22.73
		c12.89-2.83,23.69,1.5,32.88,10.73c31.16,31.27,62.44,62.44,93.59,93.71c2.16,2.17,3.73,4.93,6.03,8.03
		c4.02-4.48,6.71-7.48,9.81-10.93c-1.82-1.94-3.84-4.19-5.97-6.33c-31.6-31.63-63.27-63.19-94.81-94.89
		c-9.67-9.72-13.29-21.38-9.18-34.77c3.9-12.7,12.81-20.36,25.63-22.98c12.96-2.65,23.56,2.21,32.7,11.4
		c30.94,31.09,62.03,62.05,93.01,93.1c2.17,2.17,4.01,4.68,7.27,8.54c2.98-4.66,5.2-8.14,7.79-12.2c-0.93-0.99-2.93-3.26-5.06-5.39
		c-31.2-31.23-62.38-62.49-93.68-93.63c-9.45-9.4-14.14-20.32-11.07-33.56c6.13-26.47,36.86-35.21,56.93-15.95
		c17.65,16.93,34.84,34.36,51.87,51.91c4.64,4.78,7.67,5.58,14,1.97c133.07-76.01,264.61-72.95,394.17,8.8
		c5.5,3.47,9.38,3.72,15.09,1.16c56.11-25.13,112.34-50,168.56-74.88c14.33-6.34,27.09-5.01,35.81,4.29
		c3.53,3.76,5.71,8.78,8.51,13.23C1188.59,401.38,1188.59,406.44,1188.59,411.51z M708.87,732.15c-5.81-6.01-11.19-11.36-16.3-16.95
		c-6.29-6.87-6.25-12.81-0.27-20.26c2.28-2.85,4.77-5.57,6.72-8.64c14.15-22.24,10.38-49.51-9.98-69.91
		c-67.93-68.06-135.97-136.01-203.97-203.99c-1.39-1.39-2.68-3.57-4.3-3.88c-2.92-0.56-7.22-1.12-8.78,0.45
		c-1.54,1.56-1.06,5.97-0.19,8.74c0.67,2.16,3.27,3.73,5.06,5.52c34.79,34.8,69.6,69.56,104.35,104.39
		c9.01,9.03,8.95,15.33-0.01,24.46c-7.29,7.42-14.65,14.77-22.02,22.12c-10.63,10.61-16.22,10.6-26.87-0.04
		c-34.4-34.39-68.79-68.79-103.19-103.18c-1.79-1.79-3.36-4.4-5.52-5.06c-2.77-0.85-7.15-1.27-8.76,0.28
		c-1.55,1.49-1.14,5.94-0.29,8.69c0.66,2.15,3.26,3.73,5.05,5.52c34.79,34.8,69.6,69.57,104.36,104.39
		c9.11,9.13,9.11,15.34,0.12,24.46c-7.3,7.41-14.68,14.74-22.05,22.08c-10.46,10.42-16.56,10.43-26.96,0.04
		c-34.4-34.38-68.79-68.78-103.19-103.17c-1.79-1.79-3.37-4.37-5.53-5.05c-2.76-0.86-7.19-1.34-8.73,0.2
		c-1.58,1.58-1.24,5.98-0.43,8.76c0.63,2.15,3.26,3.73,5.04,5.52c66.59,66.61,133.71,132.7,199.53,200.07
		c26.42,27.04,61.59,25.84,82.61,5.51c6.14-5.94,12.54-5.36,18.89,0.19c5.69,4.97,11.14,10.23,16.08,14.79
		c-7.05,7.12-13.08,13.2-19.32,19.51c-2.26-1.96-4.75-4.11-7.36-6.37c-16.55,10.56-34.26,15.87-53.8,13.93
		c-21.01-2.09-38.66-11.06-53.34-26.1c-9.55-9.78-19.11-19.55-28.66-29.32c-0.76,0.48-1.51,0.96-2.27,1.44
		c-5.01,64.24,12.03,121.97,51.92,173.62c1.9-1.65,3.22-2.67,4.39-3.85c67.61-67.58,135.23-135.15,202.7-202.87
		c2.56-2.57,4.42-6.46,5.26-10.06c11.74-50.04,33.42-95.21,65.72-135.22c4.89-6.06,10.06-11.89,15.17-17.91
		c-62.42-33.62-154.02-30.69-211.29,2.62c20,19.95,39.85,39.82,59.8,59.61c17.68,17.54,26.69,38.68,26.03,63.59
		c-0.42,15.76-5.77,30.15-14.42,43.23c2.9,3.24,5.46,6.09,7.64,8.53C721.33,719.1,715.56,725.15,708.87,732.15z M782.72,860.97
		c1.99,2.59,3.63,5.29,5.8,7.47c78.28,78.37,156.6,156.69,234.93,235c2.58,2.58,5.12,5.28,8.06,7.41
		c7.89,5.71,18.72,4.88,25.59-1.65c7.05-6.69,8.25-18.06,2.43-26.18c-2.27-3.17-5.2-5.89-7.98-8.67
		c-78.3-78.35-156.62-156.67-234.93-235.01c-2.09-2.09-4.09-4.27-5.43-5.66c6.6-6.61,12.51-12.52,19.72-19.73
		c34.41,34.54,69.17,69.43,103.92,104.31c78.16-82.58,80.38-205.02,34.4-279.81C859.9,747.76,750.46,857.19,641.07,966.57
		c43.99,35.48,171.14,40.45,215.79,7.04c-31.36-31.22-62.57-62.29-94.03-93.6C769.05,874.06,775.09,868.28,782.72,860.97z
		 M1162.22,403.77c-0.63-0.76-1.25-1.52-1.88-2.29c-3.21,1.3-6.46,2.51-9.63,3.92c-54.91,24.37-109.88,48.59-164.69,73.17
		c-96.16,43.12-156.43,116.07-181.43,218.46c-1.62,6.64-5.47,13.63-10.29,18.46c-116.68,117.13-233.66,233.95-350.42,351
		c-4.81,4.82-9.39,10.79-11.61,17.09c-4.99,14.15,6.07,26.76,20.81,23.59c6.09-1.31,12.35-5.45,16.88-9.96
		C588.43,979.1,706.69,860.77,824.98,742.47c109.94-109.95,219.89-219.89,329.79-329.87
		C1157.49,409.89,1159.75,406.72,1162.22,403.77z M1037.97,569.03c-16.25,16.23-32.13,32.09-47.74,47.68
		c58.76,115.09,46.96,222.44-34.33,320.51c15.72,15.75,31.32,31.37,46.88,46.97C1112.93,870.14,1121.99,691.1,1037.97,569.03z
		 M571.7,1035.19c100.19,70.34,246.53,75.88,354.32,9.91c-0.24-0.5-0.38-1.12-0.75-1.49c-14.06-14.14-28.35-28.07-42.11-42.5
		c-4.46-4.68-7.8-4.79-13.58-2.23c-82.36,36.51-163.47,33.44-243.15-8.52c-2.4-1.26-4.82-2.48-6.55-3.36
		C603.4,1003.5,587.53,1019.37,571.7,1035.19z M579.16,468.03c14.57,14.62,28.86,28.56,42.61,43c4.44,4.66,7.61,5.07,13.49,2.19
		c71.94-35.3,145.53-38.61,220.48-10.25c8.6,3.26,17.46,10.93,25.25,9.83c7.88-1.11,14.37-10.86,21.85-16.3
		c11.92-8.67,24.15-16.9,36.33-25.36C834.05,399.3,684.37,398.85,579.16,468.03z M546.97,923.86c-3.37-4.52-6.83-8.93-10.03-13.52
		c-41.42-59.32-57.49-124.75-46.94-196.45c0.94-6.37-0.11-10.88-5.02-15.49c-12.49-11.73-24.36-24.12-36.49-36.24
		c-3.84-3.84-7.71-7.66-12.51-12.42c-19.98,62.87-22.15,124.58-6.42,186.79c12.76,50.48,36.08,95.55,69.88,135.2
		C515.56,955.49,530.98,939.97,546.97,923.86z"/>
</g>
</svg>
