<?xml version="1.0" encoding="utf-8"?>
<!-- Generator: Adobe Illustrator 25.4.1, SVG Export Plug-In . SVG Version: 6.00 Build 0)  -->
<svg version="1.1" id="Capa_1" xmlns="http://www.w3.org/2000/svg" xmlns:xlink="http://www.w3.org/1999/xlink" x="0px" y="0px"
	 viewBox="0 0 1516.67 1516.67" style="enable-background:new 0 0 1516.67 1516.67;" xml:space="preserve">
<style type="text/css">
	.st0{fill:#1D1D1B;}
</style>
<g>
	<path class="st0" d="M1205.59,1146.83c-2.78-1.65-5.76-5.81-5.77-8.83c-0.29-99.41-0.23-198.82-0.2-298.24
		c0-1.2,0.3-2.39,0.55-4.35c11.87,0,23.59,0,36.6,0c-1.31-4.14-2.09-7.27-3.28-10.24c-21.91-54.89-44.01-109.72-65.66-164.71
		c-2.84-7.22-6.46-10.45-14.25-9.48c-4.84,0.61-9.82,0.11-14.9,0.11c0-61.81,0-122.45,0-183.98c22.46,0,44.45,0,67.79,0
		c-1.5-4.07-2.47-6.92-3.59-9.72c-22.18-55.46-44.43-110.89-66.47-166.4c-2.06-5.2-4.33-7.77-10.57-7.75
		c-104.73,0.22-209.45,0.16-314.18,0.18c-1.85,0-3.69,0.26-5.95,0.43c-24.25,60.61-48.48,121.19-73.18,182.92
		c23.14,0,45.1,0,67.81,0c0,21.56,0,42.29,0,64.65c-3.45-1.83-6.57-3.32-9.53-5.07c-75.43-44.33-150.89-88.6-226.16-133.2
		c-6.4-3.79-10.87-4.12-17.42-0.24c-76.88,45.55-153.84,90.96-231.08,135.89c-18.06,10.5-32.12,23.26-36.24,44.6
		c0,6.86,0,13.71,0,20.57c5.69,15.52,13.25,30.01,29.57,36.29c9.6,3.69,20.22,4.7,31.29,7.12c0,33.79,0,69.14,0,105.47
		c-9.75,0-19.27,0-30.39,0c0,4.84,0.04,8.71-0.01,12.59c-0.34,28.28,2.12,56.82-6.24,84.46c-5.37,17.77-11.79,35.14-24.23,49.51
		c0,12.47,0,24.93,0,37.4c20.13,0,40.27,0,60.92,0c0,71.8,0,142.57,0,214.78c-4.4,0-8.61-0.06-12.83,0.01
		c-23.36,0.4-38.41,11.31-46.22,33.43c-0.51,1.44-1.24,2.81-1.87,4.21c0,18.07,0,36.15,0,54.22c312.31-0.02,624.61-0.04,936.92-0.06
		c3.99,0,7.99,0,12.43,0c0-18.63,1.21-36.67-0.38-54.45C1227.58,1164.59,1218.13,1154.26,1205.59,1146.83z M1139.1,681.96
		c1.83,0.02,4.61,1.97,5.3,3.69c15.53,38.64,30.84,77.38,46.16,116.1c0.09,0.24-0.12,0.6-0.55,2.55c-6.56,0-13.53,0-20.5,0
		c-14.96,0-29.92,0.25-44.86-0.22c-2.97-0.1-7.54-2.32-8.53-4.72c-15.68-38.27-30.9-76.73-46.19-115.17
		c-0.2-0.51,0.06-1.2,0.16-2.39C1093.08,681.8,1116.09,681.71,1139.1,681.96z M770.73,682.31c17.69,0,34.96,0,53.28,0
		c-7.75,19.44-15.25,38.44-23.02,57.33c-0.64,1.56-3.1,3.27-4.78,3.34c-8.31,0.34-16.64,0.16-25.48,0.16
		C770.73,722.33,770.73,702.58,770.73,682.31z M770.59,650.44c0-5.19,0-9.74,0-14.22c10.1-1.15,19.8-2.25,29.98-3.4
		c0,5.39,0,11.13,0,17.62C789.96,650.44,780.46,650.44,770.59,650.44z M985.13,529.04c0,40.37,0,80.45,0,121.29
		c-10.18,0-19.64,0-30.42,0c0-40.24,0-80.51,0-121.3c-31.35,0-61.4,0-92.4,0c0,40.36,0,80.43,0,121.28c-10.38,0-19.84,0-30,0
		c0-60.53,0-121.11,0-182.49c91.11,0,182.5,0,274.56,0c0,60.55,0,121.16,0,182.64c-10.35,0-19.86,0-30.12,0
		c0-40.71,0-80.79,0-121.42C1045.95,529.04,1015.91,529.04,985.13,529.04z M946.51,688.56c15.73,39.29,30.72,76.73,46.12,115.17
		c-31.5,0-61.23,0-92.11,0C915.8,765.44,930.74,728.04,946.51,688.56z M922.62,650.25c-9.11,0-18.51,0-28.74,0
		c0-29.97,0-60.11,0-90.76c9.52,0,18.72,0,28.74,0C922.62,589.55,922.62,619.48,922.62,650.25z M976.89,681.81
		c19.23,0,37.36-0.12,55.48,0.19c1.75,0.03,4.3,2.35,5.04,4.18c15.5,38.59,30.8,77.27,46.12,115.94c0.1,0.25-0.09,0.6-0.37,2.11
		c-17.68,0-35.62,0.16-53.54-0.22c-1.94-0.04-4.73-2.8-5.59-4.92C1008.37,760.57,992.97,721.96,976.89,681.81z M1045.91,650.44
		c-9.91,0-19.41,0-29.78,0c-0.24-2.76-0.68-5.42-0.68-8.08c-0.05-24.61,0.3-49.22-0.22-73.81c-0.17-8.09,2.65-10.32,10.16-9.67
		c6.44,0.56,12.97,0.12,20.52,0.12C1045.91,590.22,1045.91,620,1045.91,650.44z M854.18,689.03c2.12-5.39,4.78-7.58,10.82-7.41
		c16.47,0.46,32.96,0.16,51.21,0.16c-10.85,27.13-21.21,53.02-31.57,78.91c-4.96,12.4-9.72,24.88-15.05,37.12
		c-1.14,2.61-4.28,6.09-6.59,6.16c-17.67,0.51-35.35,0.28-53.97,0.28c1-3.37,1.51-5.7,2.38-7.89
		C825.68,760.59,840.09,724.87,854.18,689.03z M831.25,926.92c0-17.97,2.8-34.65-8.48-50.72c-8.14-11.6-11.91-26.25-18.12-40.68
		c122.66,0,242.8,0,363.45,0c0,101.91,0,203.33,0,305.4c-132.29,0-264.28,0-397.39,0c0-71.39,0-142.24,0-214
		C791.02,926.92,810.81,926.92,831.25,926.92z M778.35,436.24c1-3.04,1.7-5.67,2.71-8.19c14.18-35.5,28.54-70.93,42.47-106.53
		c2.27-5.81,5-7.91,11.4-7.89c89.68,0.24,179.36,0.17,269.04,0.12c4.82,0,8.59-0.03,10.9,5.89c14.56,37.36,29.6,74.52,44.46,111.76
		c0.54,1.36,0.78,2.84,1.31,4.83C1033.06,436.24,906.16,436.24,778.35,436.24z M330.61,604.63c-11.78,0-19.9-9.92-20.1-19.12
		c-0.07-13.86,5.13-20.71,14-25.88c46.25-27,92.35-54.26,138.5-81.42c28.71-16.9,57.52-33.64,86.07-50.79
		c4.96-2.98,8.43-2.87,13.36,0.04c74.51,44.05,149.21,87.77,223.63,131.97c5.49,3.26,10.78,8.79,13.41,14.53
		c4.31,9.41,0.6,20.66-6.64,26.2c-8.87,6.79-17.69,5.44-26.92,0.14c-65.09-37.32-130.47-74.14-195.26-111.98
		c-11.13-6.5-18.77-6.48-29.88,0.02c-64.24,37.54-129,74.19-193.72,110.91C342.1,602.06,336.12,604.62,330.61,604.63z
		 M739.75,742.51c-10.25,0-19.75,0-30.25,0c0-46.29,0-91.88,0-139.14c9.87,5.62,18.73,10.49,27.35,15.74
		c1.48,0.9,2.77,3.45,2.78,5.24C739.79,663.51,739.75,702.68,739.75,742.51z M678.28,681.43c-20.76,0-40.31,0-60.96,0
		c0-30.13,0-60.15,0-90.84c-41.1,0-81.12,0-122.27,0c0,29.73,0,59.74,0,90.45c-20.86,0-40.61,0-61.3,0
		c-0.17-2.27-0.54-4.93-0.54-7.59c-0.04-26.78,0.16-53.57-0.17-80.35c-0.07-5.79,1.88-8.81,6.82-11.6
		c36.31-20.48,72.5-41.18,108.59-62.05c5.06-2.93,8.87-3.37,14.27-0.23c36.03,20.97,72.25,41.62,108.58,62.07
		c5.29,2.98,7.23,6.23,7.16,12.36C678.09,622.58,678.28,651.51,678.28,681.43z M677.48,712.67c0,9.75,0,19.48,0,29.86
		c-80.95,0-162,0-243.77,0c0-10.32,0-19.85,0-29.86C515.06,712.67,595.87,712.67,677.48,712.67z M525.67,681.45
		c0-20.08,0-39.86,0-60.39c19.63,0,39.4,0,60,0c0,19.61,0,39.61,0,60.39C565.44,681.45,545.88,681.45,525.67,681.45z M371.56,628.46
		c-0.05-5.7,1.45-9.18,6.63-11.75c7.72-3.84,15.11-8.34,23.7-13.14c0,47.04,0,92.86,0,139.09c-10.1,0-19.59,0-29.64,0
		c-0.2-3.18-0.52-5.9-0.52-8.61C371.69,698.85,371.84,663.65,371.56,628.46z M342.3,774.04c142.5,0,284.67,0,426.91,0
		c1.32,20.23,2.61,39.99,3.94,60.36c-144.75,0-289.69,0-434.79,0C339.66,814.41,340.95,794.67,342.3,774.04z M314.17,896.16
		c4.65-10.05,8.66-19.58,13.58-28.61c0.94-1.72,5.51-2.01,8.41-2.02c40.18-0.12,80.36-0.08,120.54-0.08
		c105.59,0,211.19,0.07,316.78-0.16c7.24-0.02,11.38,1.55,13.8,8.87c2.39,7.23,6.43,13.91,10.3,22
		C635.82,896.16,475.74,896.16,314.17,896.16z M739.1,927.16c0,71.15,0,141.99,0,213.61c-9.31,0-18.79,0-29.21,0
		c0-70.74,0-141.78,0-213.61C719.87,927.16,729.15,927.16,739.1,927.16z M494.43,958.16c0,61.09,0,121.71,0,182.85
		c-20.71,0-40.47,0-60.74,0c0-71.32,0-142.18,0-213.71c81.83,0,162.72,0,244.1,0c0,71.33,0,142.2,0,213.66c-20.08,0-39.84,0-60.61,0
		c0-60.86,0-121.46,0-182.8C575.92,958.16,535.66,958.16,494.43,958.16z M586.26,989.1c0,50.78,0,100.81,0,151.64
		c-20.16,0-40.12,0-60.67,0c0-50.37,0-100.62,0-151.64C545.44,989.1,565.41,989.1,586.26,989.1z M401.78,927.47
		c0,70.95,0,142.02,0,213.59c-9.89,0-19.39,0-29.48,0c0-71.26,0-142.11,0-213.59C381.95,927.47,391.46,927.47,401.78,927.47z
		 M1198.3,1202.21c-295.47,0-591.05,0-886.52,0c-4.86-21.85,1.79-30.3,23.35-30.3c279.87,0,559.73,0,839.6,0
		C1196.4,1171.91,1202.73,1179.86,1198.3,1202.21z"/>
	<path class="st0" d="M1106.9,897.05c-71.46,0-142.29,0-213.25,0c0,50.96,0,101.25,0,152.02c71.16,0,141.75,0,213.25,0
		C1106.9,997.8,1106.9,947.51,1106.9,897.05z M924.23,927.64c19.61,0,39.58,0,60.11,0c0,9.45,0,18.91,0,29.44
		c-20.25,0-39.78,0-60.11,0C924.23,947.34,924.23,937.89,924.23,927.64z M984.41,1018.19c-20.22,0-39.96,0-60.34,0
		c0-9.69,0-19.13,0-29.22c19.85,0,39.58,0,60.34,0C984.41,998.82,984.41,1008.27,984.41,1018.19z M1075.99,1017.91
		c-19.44,0-39.18,0-59.75,0c0-9.2,0-18.62,0-29.2c19.94,0,39.47,0,59.75,0C1075.99,998.2,1075.99,1007.67,1075.99,1017.91z
		 M1076.09,956.68c-19.75,0-39.48,0-60.25,0c0-10.04,0-19.27,0-29.17c20.11,0,39.86,0,60.25,0
		C1076.09,936.98,1076.09,946.45,1076.09,956.68z"/>
</g>
</svg>
