<?xml version="1.0" encoding="utf-8"?>
<!-- Generator: Adobe Illustrator 25.4.1, SVG Export Plug-In . SVG Version: 6.00 Build 0)  -->
<svg version="1.1" id="Capa_1" xmlns="http://www.w3.org/2000/svg" xmlns:xlink="http://www.w3.org/1999/xlink" x="0px" y="0px"
	 viewBox="0 0 1516.67 1516.67" style="enable-background:new 0 0 1516.67 1516.67;" xml:space="preserve">
<style type="text/css">
	.st0{fill:#1D1D1B;}
</style>
<g>
	<path class="st0" d="M1240.58,1114.28c0,19.46,0,38.93,0,58.39c-5.62,13.96-16.45,17.62-30.73,17.61c-301-0.22-602-0.16-903-0.17
		c-1.88,0-3.77,0.04-5.65-0.03c-16.21-0.64-24.67-9.13-24.97-25.48c-0.23-12.86-0.13-25.74-0.03-38.61
		c0.22-29.09,18.58-47.37,47.79-47.67c6.44-0.07,12.88-0.01,19.43-0.01c0.18-3.7,0.37-5.88,0.37-8.05
		c0.01-125.23-0.05-250.47,0.18-375.7c0.01-6.76-2.31-8.96-8.46-10.68c-32.41-9.03-55.07-36.23-57.63-70.1
		c-1.37-18.11-1.23-36.37-0.92-54.54c0.11-6.31,1.69-13.12,4.47-18.78c18.07-36.86,36.81-73.4,54.91-110.25
		c2.64-5.37,3.99-11.83,4.18-17.84c0.55-17.56-0.04-35.15,0.27-52.72c0.37-21.01,12.12-32.79,32.69-33.16
		c11.3-0.2,22.6-0.08,33.9-0.04c10.35,0.04,20.72-0.14,31.06,0.35c7.68,0.36,12.17,5.27,12.68,12.69
		c0.52,7.44-3.34,12.63-10.87,14.26c-3.33,0.72-6.83,0.9-10.25,0.92c-17.58,0.09-35.16-0.17-52.72,0.26
		c-2.78,0.07-7.8,2.98-7.86,4.71c-0.6,16.81-0.36,33.64-0.36,50.89c260.04,0,518.8,0,778.75,0c0-14.6,0-28.62,0-42.65
		c0-13.17-0.01-13.18-13.21-13.18c-207.15,0-414.31,0.01-621.46-0.05c-4.67,0-9.48-0.11-13.97-1.23c-7-1.74-10.43-7.05-9.86-14.07
		c0.57-6.97,4.68-11.5,11.88-12.51c2.78-0.39,5.63-0.39,8.45-0.39c209.98-0.02,419.96-0.03,629.94,0
		c25.41,0,36.42,11.24,36.48,36.99c0.04,17.26-0.05,34.53,0.07,51.79c0.02,3.08-0.01,6.55,1.3,9.17
		c20.93,41.66,42.07,83.22,63.17,124.8c0,20.09,0,40.18,0,60.28c-0.56,2.08-1.41,4.12-1.63,6.23
		c-3.36,31.91-25.89,59.36-56.84,67.82c-7.67,2.09-9.34,5.51-9.33,12.93c0.24,123.65,0.17,247.3,0.17,370.96c0,3.34,0,6.68,0,11.02
		c8.94,0,16.73-0.33,24.49,0.06C1220.64,1079.66,1233.36,1093.71,1240.58,1114.28z M396.99,1077.83c0-4.31,0-8.01,0-11.7
		c0-98.57-0.01-197.13,0.01-295.7c0.01-22.8,9.83-32.54,32.81-32.55c49.91-0.03,99.82-0.02,149.73,0
		c24.16,0.01,33.62,9.46,33.62,33.61c0.01,98.25,0,196.51,0,294.76c0,3.68,0,7.36,0,11.54c177.51,0,354.04,0,531.51,0
		c0-4.21,0-7.89,0-11.58c0-120.85,0-241.71,0-362.56c0-16.15-0.01-16.14-14.81-21.77c-1.75-0.67-3.58-1.35-5.08-2.44
		c-11.24-8.12-22.4-16.34-33.66-24.58c-35.37,45.4-99.47,42.28-132.66-1.95c-16.93,21.95-38.82,34.42-66.88,34.35
		c-27.85-0.07-49.54-12.72-66.57-34.59c-17.27,22.51-39.05,34.56-66.72,34.57c-27.93,0.01-49.75-12.54-66.62-34.4
		c-32.05,43.28-96.89,48.42-133.88,0.45c-30.74,42.04-95.11,48.71-133.85-0.45c-11.03,14.72-24.67,25.99-42.67,30.45
		c-7.56,1.87-9.42,5.41-9.4,12.95c0.26,123.68,0.19,247.36,0.18,371.04c0,3.36,0,6.72,0,10.54
		C380.52,1077.83,387.94,1077.83,396.99,1077.83z M304.46,1161.12c303.18,0,605.24,0,907.78,0c0-13.26,0.38-25.79-0.12-38.29
		c-0.39-9.7-6.65-15.42-16.3-16.15c-2.5-0.19-5.02-0.1-7.53-0.1c-286.6,0-573.2,0-859.8,0c-2.2,0-4.4-0.07-6.59,0.05
		c-10.72,0.58-17,6.42-17.35,17.11C304.16,1135.94,304.46,1148.15,304.46,1161.12z M425.75,1077.49c53.7,0,106.22,0,158.32,0
		c0-104.17,0-207.51,0-310.51c-53.34,0-105.85,0-158.32,0C425.75,870.97,425.75,974.09,425.75,1077.49z M713.83,439.92
		c-2.31,32.73-4.59,64.99-6.86,97.27c35.05,0,68.65,0,102.9,0c-2.37-32.92-4.67-65-6.99-97.27
		C772.79,439.92,743.76,439.92,713.83,439.92z M596.73,439.94c-7.01,32.66-13.95,64.94-20.92,97.4c34.69,0,68.4,0,102.7,0
		c2.33-32.66,4.61-64.72,6.94-97.4C655.51,439.94,626.77,439.94,596.73,439.94z M831.26,439.64c2.4,33.3,4.72,65.59,7.03,97.64
		c34.9,0,68.54,0,102.71,0c-7.15-33.09-14.14-65.39-21.11-97.64C890.12,439.64,861.61,439.64,831.26,439.64z M567.62,440.55
		c-1.68-0.52-2.56-1.02-3.44-1.02c-26.31-0.07-52.62-0.27-78.93,0.17c-2.53,0.04-6.3,3.55-7.3,6.26
		c-10.67,28.72-20.92,57.6-31.22,86.46c-0.56,1.56-0.5,3.33-0.71,4.9c34.01,0,67.38,0,100.8,0
		C553.85,504.64,560.73,472.61,567.62,440.55z M1070.9,537.99c-0.1-2.09,0.07-3.08-0.23-3.9c-10.62-29.74-21.16-59.52-32.19-89.11
		c-0.93-2.5-5.16-5.14-8.02-5.32c-9.98-0.65-20.03-0.26-30.06-0.26c-16.85,0-33.69,0-51.54,0c7.2,33.51,14.14,65.77,21.11,98.21
		c2.6,0.16,4.44,0.37,6.28,0.38C1007.56,538,1038.86,537.99,1070.9,537.99z M450.06,439.42c-28.42,0-55.32-0.18-82.2,0.29
		c-2.6,0.05-6.08,3.72-7.53,6.54c-14.43,28.09-28.54,56.36-42.69,84.6c-1.01,2.01-1.59,4.24-2.65,7.13
		c32.16,0,63.15,0.09,94.14-0.18c2.35-0.02,6.05-2.15,6.8-4.16C427.32,502.91,438.33,472.03,450.06,439.42z M1066.7,439.43
		c11.71,32.55,22.69,63.44,34.14,94.15c0.79,2.13,5,4.16,7.67,4.22c16.59,0.39,33.2,0.19,49.79,0.2c14.28,0,28.55,0,42.83,0
		c0-1.63,0.21-2.35-0.03-2.83c-15.22-30.5-30.41-61.01-45.88-91.38c-1.02-2-4.11-4.15-6.26-4.17
		C1122.08,439.33,1095.18,439.43,1066.7,439.43z M305.89,566.57c0,15.92-1.05,30.97,0.24,45.82c2.16,24.97,21.84,44.12,45.57,46.19
		c26.62,2.32,50.21-11.79,55.75-37.08c3.86-17.61,2.66-36.33,3.74-54.93C374.7,566.57,340.6,566.57,305.89,566.57z M573.06,566.57
		c0,15.87-1.43,31.84,0.32,47.45c2.9,25.73,23.58,43.65,48.96,44.84c25.39,1.19,48.27-14.66,52.98-39.93
		c3.15-16.92,2-34.63,2.78-52.36C641.99,566.57,607.85,566.57,573.06,566.57z M839.71,566.55c0,15.95-0.92,31.02,0.22,45.94
		c1.69,22.26,19.68,41.31,41.31,45.68c22.52,4.54,45.66-6.13,56.53-26.38c11.21-20.88,5.66-43.23,6.83-65.23
		C908.95,566.55,874.81,566.55,839.71,566.55z M1106.75,566.59c0,15.1-0.5,29.47,0.12,43.79c0.98,22.64,17.78,42.03,40.21,47.48
		c21.81,5.3,46.09-5.17,57.17-24.91c11.82-21.05,6.18-43.82,7.54-66.36C1176.29,566.59,1142.2,566.59,1106.75,566.59z M439.63,566.6
		c0,16.66-1.14,32.37,0.27,47.84c1.97,21.64,19.66,39.5,40.84,43.72c21.85,4.36,44.31-5.7,55.58-24.75
		c12.61-21.32,5.53-44.34,7.7-66.81C508.12,566.6,474.01,566.6,439.63,566.6z M707.03,566.52c0,17.47-1.73,34.23,0.42,50.48
		c3,22.64,23.04,39.71,44.88,41.58c24.79,2.12,46.7-10.59,54.77-32.61c7.1-19.36,3.17-39.42,3.71-59.44
		C775.41,566.52,741.27,566.52,707.03,566.52z M973.1,566.76c0,14.51-0.46,28.56,0.1,42.56c1,25.14,20.94,46.64,44.9,49.18
		c27.25,2.88,51.82-11.87,57.25-37.61c3.67-17.42,2.71-35.81,3.84-54.13C1042.57,566.76,1008.23,566.76,973.1,566.76z"/>
	<path class="st0" d="M671.23,766.13c0,74.6,0,147.66,0,221.52c135.22,0,270.29,0,406.17,0c0-73.29,0-146.77,0-221.52
		c-3.47,0-6.81,0-10.15,0c-50.84,0-101.68,0.01-152.52-0.02c-3.45,0-7,0.22-10.31-0.52c-6.48-1.44-10.35-5.69-10.76-12.49
		c-0.41-6.72,2.47-11.73,8.95-13.8c3.5-1.11,7.39-1.38,11.11-1.38c53.66-0.08,107.33-0.09,160.99-0.04
		c21.64,0.02,31.73,10.08,31.75,31.71c0.06,71.87,0.06,143.73,0,215.6c-0.02,21.78-9.82,31.49-31.71,31.49
		c-133.69,0.03-267.38,0.03-401.07,0c-21.36-0.01-31.08-9.57-31.11-30.99c-0.11-72.18-0.1-144.36,0-216.54
		c0.03-21.24,10.06-31.23,31.11-31.26c53.66-0.07,107.33-0.05,160.99,0.02c3.41,0,6.96,0.23,10.2,1.19
		c6.94,2.04,10.21,7.15,9.58,14.27c-0.63,7.13-4.9,11.37-11.96,12.42c-3.08,0.46-6.26,0.32-9.39,0.32
		c-50.21,0.02-100.42,0.01-150.64,0.01C679.08,766.13,675.69,766.13,671.23,766.13z"/>
	<path class="st0" d="M532.53,916.73c0-4.38-0.44-8.83,0.1-13.14c0.99-7.94,6.1-12.71,13.86-12.7c7.76,0.01,13.23,4.77,13.78,12.72
		c0.65,9.35,0.69,18.83-0.1,28.16c-0.68,7.94-6.34,12.41-14.16,12.2c-7.36-0.2-12.34-4.71-13.28-12.22
		c-0.62-4.93-0.12-10-0.12-15.01C532.58,916.73,532.55,916.73,532.53,916.73z"/>
</g>
</svg>
