<?xml version="1.0" encoding="utf-8"?>
<!-- Generator: Adobe Illustrator 25.4.1, SVG Export Plug-In . SVG Version: 6.00 Build 0)  -->
<svg version="1.1" id="Capa_1" xmlns="http://www.w3.org/2000/svg" xmlns:xlink="http://www.w3.org/1999/xlink" x="0px" y="0px"
	 viewBox="0 0 1516.67 1516.67" style="enable-background:new 0 0 1516.67 1516.67;" xml:space="preserve">
<style type="text/css">
	.st0{fill:#1D1D1B;}
</style>
<g>
	<path class="st0" d="M246.01,1280.9c-6.94-5.03-12.65-10.82-9.18-20.33c3.41-9.36,11.29-10.4,20.02-10.36
		c42.5,0.17,85,0.08,129.08,0.08c0-4.14,0-7.73,0-11.31c0-22.79-0.11-45.58,0.06-68.37c0.09-12.5,5.4-18.73,15.25-18.69
		c9.77,0.03,15.17,6.37,15.25,18.78c0.17,26.13,0.05,52.26,0.05,78.99c221.18,0,441.44,0,662.44,0c0-128.59,0-256.97,0-386.96
		c-4.03,0-7.95,0-11.87,0c-78.58,0-157.16,0.01-235.73-0.01c-18.13,0-22.15-4.03-22.16-22.13c-0.02-41.5-0.01-83-0.01-124.5
		c0-3.68,0-7.36,0-12.46c-4.46,0-8.07,0-11.68,0c-24.49,0-48.98,0.09-73.48-0.05c-11.24-0.06-17.75-5.91-17.64-15.25
		c0.1-8.86,6.51-15.12,16.97-15.2c32.99-0.24,65.99-0.27,98.99,0.01c11.99,0.1,17.39,6.32,17.42,19.06
		c0.1,42.52,0.04,85.04,0.04,127.56c0,3.68,0,7.35,0,11.69c22,0,43.22,0,65.05,0c0-133.71,0-267.18,0-401.26
		c-89.9,0-179.51,0-269.23,0c-0.28,1.76-0.77,3.12-0.65,4.42c2.29,26.43-15.81,48.28-48.87,46.02c-9.79-0.67-19.66-0.1-30.94-0.1
		c0,11.46,0,22.23,0,33c0,10.48,0,20.97,0,32.64c16.51,0,32.04-0.06,47.57,0.02c15.12,0.07,20.45,5.24,20.52,20.11
		c0.11,23.81,0.1,47.62,0,71.43c-0.06,14.94-5.39,20.21-20.42,20.23c-42.18,0.06-84.36,0.08-126.54-0.01
		c-14.33-0.03-19.69-5.44-19.76-19.83c-0.11-23.81-0.09-47.62-0.01-71.43c0.05-15.45,5.25-20.45,21.12-20.51
		c15.23-0.05,30.46-0.01,46.29-0.01c0-21.96,0-42.92,0-65.65c-7.92,0-15.89,0-23.87,0c-41.73,0-51.63-8.78-56.04-50.93
		c-3.48,0-7.1,0-10.72,0c-34.7,0-69.39,0.05-104.09-0.02c-15.2-0.03-20.24-5.03-20.29-20.09c-0.08-23.47-0.03-46.94-0.02-70.41
		c0-21.75,3.18-24.98,24.59-24.98c98.31,0,196.62,0,294.92,0c44.22,0,88.44,0,132.66,0c4.06,0,8.12,0,13.68,0
		c0-11.3-0.03-22.06,0.01-32.82c0.09-29,16.53-45.36,45.63-45.42c11.57-0.02,23.13-0.04,34.7,0.01
		c13.13,0.05,19.86,5.16,19.99,15.06c0.13,9.98-6.69,15.47-19.52,15.54c-12.25,0.06-24.49,0.15-36.74-0.03
		c-8.77-0.12-13.46,3.66-13.44,12.68c0.02,11.16,0,22.33,0,34.23c64.85,0,128.87,0,193.86,0c0-12.83,0.43-25.34-0.17-37.8
		c-0.34-7.15-5.93-9.11-12.44-9.09c-20.41,0.07-40.82,0.08-61.23,0c-12.04-0.04-19.08-5.53-19.39-14.85
		c-0.32-9.71,6.98-15.68,19.52-15.72c20.75-0.07,41.5-0.15,62.25,0.02c25.13,0.2,41.93,17.16,42.22,42.47
		c0.13,11.48,0.02,22.96,0.02,35.74c12.84,0,24.64-0.03,36.44,0.01c17.18,0.06,22.11,4.84,22.15,21.63
		c0.05,24.49,0.08,48.98-0.02,73.48c-0.06,14.93-5.44,20.25-20.32,20.38c-11.56,0.1-23.13,0.07-34.7,0.13
		c-0.66,0-1.32,0.29-2.76,0.62c0,133.29,0,266.76,0,401.78c15.4,0,30.89,0,46.39,0c3.4,0,6.8,0,10.2,0
		c18.59,0.03,22.92,4.25,22.92,22.71c0.02,127.22,0.01,254.44,0.01,381.67c0,4.34,0,8.68,0,13.8c19.2,0,37.18,0,55.16,0
		c31.3,0,62.59,0.28,93.88-0.17c9.37-0.13,16.56,2.27,21.49,10.37c0,6.8,0,13.59,0,20.4C935.92,1280.9,590.97,1280.9,246.01,1280.9z
		 M487.73,626.72c35.01,0,69.42,0,104.35,0c0-16.73,0-32.82,0-49.37c-35.03,0-69.45,0-104.35,0
		C487.73,594.01,487.73,610.1,487.73,626.72z M417.75,393.49c17.81-16.14,34.69-31.44,53.16-48.18c-36.55,0-70.28,0-106.41,0
		C383.1,362.15,400.08,377.51,417.75,393.49z M605.02,393.48c17.73-16.07,34.65-31.41,52.77-47.83c-35.95,0-69.76,0-105.7,0
		C570.58,362.36,587.42,377.57,605.02,393.48z M926.33,345.37c18.87,17.05,35.97,32.5,53.28,48.13
		c17.76-16.13,34.58-31.41,52.98-48.13C996.2,345.37,962.56,345.37,926.33,345.37z M738.97,345.29
		c19.07,17.22,36.05,32.56,53.35,48.18c17.59-15.96,34.48-31.28,53.11-48.18C809.15,345.29,775.51,345.29,738.97,345.29z
		 M564.94,398.57c-19.04-17.2-36.08-32.59-53.61-48.42c-17.73,16.04-34.82,31.5-53.52,48.42
		C494.48,398.57,528.31,398.57,564.94,398.57z M752.18,398.55c-19.06-17.21-36.28-32.76-53.61-48.41
		c-17.86,16.18-34.79,31.52-53.43,48.41C681.77,398.55,715.61,398.55,752.18,398.55z M885.89,350.11
		c-17.47,15.85-34.57,31.36-52.93,48.02c36.23,0,70.12,0,105.97,0C920.64,381.57,903.83,366.36,885.89,350.11z M603.03,430.28
		c-42.21,0-84.47,0-126.63,0c-2.12,16.9,0.13,19.6,15.85,19.61c31.95,0.02,63.91,0.02,95.86,0
		C603.39,449.87,605.99,446.47,603.03,430.28z M936.67,734.48c0,28.12,0,53.94,0,81.62c18.24-14.01,35.23-27.07,53.1-40.8
		C972.05,761.68,955.21,748.73,936.67,734.48z M936.45,671.8c18.71-14.39,35.68-27.44,53.33-41.02
		c-18.18-13.93-35.15-26.94-53.33-40.88C936.45,618.03,936.45,643.7,936.45,671.8z M936.44,527.34
		c18.78-14.43,35.76-27.48,53.38-41.02c-18.17-13.89-35.16-26.88-53.38-40.8C936.44,473.45,936.44,499.08,936.44,527.34z
		 M999.17,662.27c-18.45,14.18-35.24,27.07-53.08,40.77c17.9,13.74,34.78,26.7,53.08,40.75
		C999.17,715.63,999.17,690.19,999.17,662.27z M998.82,599.06c0-27.67,0-53.3,0-80.97c-18.27,14.03-35.16,27.01-52.72,40.49
		C964.21,572.49,980.83,585.25,998.82,599.06z M1057.24,398.48c0-11.51,0-21.77,0-33.89c-12.96,11.69-24.53,22.14-37.54,33.89
		C1033.79,398.48,1045.24,398.48,1057.24,398.48z M377.63,398.52c-13.39-12.07-24.78-22.34-37.41-33.72c0,12.34,0,22.82,0,33.72
		C352.21,398.52,363.5,398.52,377.63,398.52z M998.86,430.4c-10.34,0-19.88,0-31.61,0c11.33,8.69,20.88,16,31.61,24.22
		C998.86,445.61,998.86,438.33,998.86,430.4z M967.35,831.21c12.14,0,21.93,0,31.31,0c0-8.14,0-15.37,0-24.05
		C987.95,815.38,978.47,822.67,967.35,831.21z"/>
	<path class="st0" d="M416.55,703.62c0,5.47,0,9.79,0,14.1c0,126.14,0.01,252.28-0.03,378.42c0,4.4,0.04,8.91-0.86,13.17
		c-1.63,7.71-7.27,11.6-14.78,11.43c-7.48-0.17-12.91-4.23-14.31-12.03c-0.65-3.64-0.61-7.44-0.61-11.17
		c-0.03-133.62-0.03-267.24-0.02-400.86c0-19.76,4-23.67,24.04-23.68c80.58-0.01,161.16-0.01,241.74,0.03
		c4.06,0,8.27-0.11,12.13,0.88c7.93,2.03,12.02,7.61,11.33,15.84c-0.69,8.21-5.52,12.92-13.79,13.69
		c-3.37,0.31-6.79,0.17-10.19,0.17c-73.78,0.01-147.56,0.01-221.34,0.01C425.88,703.62,421.89,703.62,416.55,703.62z"/>
	<path class="st0" d="M486.67,927.89c0-5.08-0.23-10.16,0.05-15.22c0.5-8.82,6.52-15.25,14.52-15.2c8.62,0.05,14.7,4.79,15.42,13.16
		c0.98,11.41,0.98,23.03,0.01,34.44c-0.71,8.34-6.69,13.15-15.37,13.18c-8.07,0.03-14.06-6.26-14.58-15.13
		C486.43,938.06,486.67,932.97,486.67,927.89z"/>
	<path class="st0" d="M776.35,927.8c0.01,5.41,0.46,10.88-0.1,16.23c-0.91,8.71-7.61,14.5-15.63,14.27
		c-8.07-0.23-14.28-6.31-14.6-15.15c-0.36-10.14-0.35-20.31-0.01-30.45c0.3-8.84,6.47-15,14.47-15.31
		c7.93-0.3,14.82,5.57,15.74,14.18C776.8,916.92,776.34,922.39,776.35,927.8z"/>
	<path class="st0" d="M1005.23,927.13c0.01-5.08-0.29-10.18,0.08-15.23c0.62-8.71,5.83-13.83,14.27-14.34
		c8.58-0.52,14.84,4.44,15.62,12.8c1.07,11.4,1,23.03,0.11,34.46c-0.65,8.36-6.5,13.25-15.17,13.44
		c-8.05,0.18-14.31-6.14-14.85-14.88C1004.95,937.98,1005.22,932.55,1005.23,927.13z"/>
	<path class="st0" d="M646.36,928.19c0,5.41,0.35,10.85-0.08,16.22c-0.66,8.26-5.78,13.04-13.72,13.72
		c-8.05,0.69-14.74-3.45-15.5-11.43c-1.18-12.35-1.18-24.97-0.13-37.34c0.68-7.99,7.25-12.35,15.27-11.8
		c8.4,0.58,13.65,5.62,14.16,14.39c0.32,5.39,0.06,10.82,0.06,16.23C646.4,928.19,646.38,928.19,646.36,928.19z"/>
	<path class="st0" d="M486.69,1051.05c0-5.07-0.28-10.16,0.06-15.21c0.59-8.61,5.32-13.79,14.03-14.39
		c8.77-0.6,14.97,4.09,15.75,12.43c1.09,11.71,1.1,23.68,0,35.39c-0.78,8.34-7.18,13.11-15.78,12.48c-8.49-0.62-13.54-5.74-14-14.49
		C486.46,1061.88,486.7,1056.46,486.69,1051.05z"/>
	<path class="st0" d="M646.42,1174.57c0.01,5.41,0.25,10.83-0.04,16.22c-0.47,8.64-5.19,13.76-13.82,14.65
		c-8.29,0.85-15.5-4.5-16.11-13.31c-0.79-11.42-0.86-23.01,0.17-34.4c0.76-8.44,7.11-13.28,15.6-12.75
		c8.35,0.53,13.67,5.54,14.15,14.37C646.63,1164.42,646.41,1169.5,646.42,1174.57z"/>
	<path class="st0" d="M905.64,1174.56c0,5.74,0.38,11.52-0.09,17.22c-0.67,8.18-5.54,13.02-13.68,13.63
		c-8.68,0.65-15.03-3.81-15.81-12.28c-1.07-11.71-1.06-23.64-0.12-35.37c0.68-8.49,7.09-13.28,15.56-12.77
		c8.35,0.5,13.67,5.54,14.16,14.37c0.28,5.05,0.05,10.13,0.05,15.2C905.68,1174.55,905.66,1174.56,905.64,1174.56z"/>
	<path class="st0" d="M905.67,928.01c0,5.41,0.31,10.84-0.07,16.22c-0.59,8.26-5.63,13.1-13.56,13.88
		c-8.04,0.79-14.87-3.25-15.6-11.23c-1.16-12.68-1.07-25.62,0.06-38.31c0.67-7.54,7.28-11.44,14.81-11.03
		c7.93,0.43,13.36,4.97,14.17,13.23c0.56,5.69,0.11,11.48,0.11,17.23C905.62,928.01,905.64,928.01,905.67,928.01z"/>
	<path class="st0" d="M646.42,1052.16c-0.01,5.1,0.24,10.22-0.06,15.3c-0.53,8.85-5.73,13.84-14.28,14.33
		c-8.14,0.46-14.56-4-15.26-12.01c-1.06-12.11-1.13-24.48,0.08-36.57c0.85-8.52,7.63-12.65,16.34-11.68
		c8.27,0.93,12.67,6.11,13.13,14.31C646.68,1041.26,646.43,1046.72,646.42,1052.16z"/>
	<path class="st0" d="M745.94,1051.66c0-5.07-0.18-10.15,0.04-15.21c0.37-8.6,4.82-13.92,13.48-14.97
		c8.35-1.01,15.88,4.22,16.52,12.8c0.86,11.42,0.94,23.01-0.01,34.42c-0.7,8.38-6.73,13.11-15.35,13.19
		c-8.21,0.08-14.1-6.07-14.63-15.01C745.7,1061.82,745.94,1056.73,745.94,1051.66z"/>
	<path class="st0" d="M486.67,1175.19c0-5.07-0.24-10.16,0.06-15.21c0.52-8.89,6.49-15.23,14.59-15.1
		c8.56,0.13,14.67,4.83,15.36,13.23c0.95,11.41,1,23.03-0.03,34.42c-0.75,8.28-6.61,13.12-15.44,12.96
		c-8.26-0.14-13.98-6.05-14.49-15.08C486.44,1185.35,486.67,1180.26,486.67,1175.19z"/>
	<path class="st0" d="M745.96,1175.51c0.01-5.41-0.26-10.84,0.07-16.23c0.54-8.79,5.87-13.81,14.25-14.31
		c8.52-0.5,14.84,4.42,15.61,12.8c1.06,11.39,0.92,23,0.15,34.43c-0.58,8.64-7.98,14.12-16.22,13.23
		c-8.62-0.93-13.32-6.08-13.82-14.7C745.71,1185.67,745.95,1180.59,745.96,1175.51z"/>
	<path class="st0" d="M1005.23,1175.02c-0.01-5.07-0.27-10.16,0.05-15.22c0.55-8.8,6.71-15.18,14.77-14.95
		c8.54,0.24,14.59,4.96,15.25,13.39c0.89,11.42,0.98,23.04-0.1,34.43c-0.78,8.28-6.76,13.24-15.57,12.75
		c-8.67-0.48-13.6-5.58-14.31-14.18C1004.89,1185.88,1005.25,1180.44,1005.23,1175.02z"/>
	<path class="st0" d="M905.65,1051.77c0,5.44,0.33,10.9-0.08,16.31c-0.62,8.37-5.79,13.11-13.83,13.69
		c-8.07,0.58-14.78-3.53-15.48-11.63c-1.07-12.44-1.09-25.13,0.13-37.54c0.79-8.07,7.53-11.84,15.75-11.12
		c7.77,0.68,12.56,5.21,13.32,12.97c0.56,5.72,0.11,11.55,0.11,17.32C905.6,1051.77,905.62,1051.77,905.65,1051.77z"/>
	<path class="st0" d="M1005.23,1051.03c0-5.07-0.31-10.16,0.07-15.21c0.64-8.58,5.36-13.77,14.08-14.36
		c8.78-0.59,14.97,4.14,15.75,12.45c1.1,11.71,1.12,23.69-0.01,35.4c-0.8,8.32-7.22,13.1-15.82,12.45
		c-8.5-0.64-13.52-5.8-14.01-14.51C1004.98,1061.86,1005.23,1056.44,1005.23,1051.03z"/>
	<path class="st0" d="M486.7,803.42c0.01-5.1-0.27-10.22,0.08-15.29c0.57-8.26,5.26-13.22,13.46-14.02c8.73-0.84,15.32,3.61,16.2,12
		c1.23,11.76,1.18,23.8,0.12,35.59c-0.75,8.37-6.93,13.18-15.78,12.56c-8.76-0.62-13.51-5.82-14.03-14.52
		C486.42,814.32,486.69,808.86,486.7,803.42z"/>
	<path class="st0" d="M646.45,804.38c0,5.1,0.24,10.21-0.05,15.29c-0.5,8.69-5.17,13.97-13.95,14.59
		c-8.79,0.61-15.05-4.01-15.78-12.5c-1.01-11.78-1.05-23.8,0.1-35.56c0.83-8.49,7.37-12.87,16.09-12.09
		c8.22,0.74,12.93,5.69,13.47,13.96c0.36,5.41,0.07,10.87,0.07,16.31C646.41,804.38,646.43,804.38,646.45,804.38z"/>
	<path class="st0" d="M745.97,803.75c-0.01-5.1-0.27-10.22,0.05-15.3c0.56-8.75,5.5-13.86,14.19-14.39
		c8.78-0.53,14.92,4.31,15.7,12.72c1.05,11.45,1.06,23.15,0.03,34.6c-0.75,8.34-6.66,13.34-15.55,12.89
		c-8.77-0.44-13.69-5.52-14.34-14.21C745.65,814.66,745.98,809.19,745.97,803.75z"/>
</g>
</svg>
