<?xml version="1.0" encoding="utf-8"?>
<!-- Generator: Adobe Illustrator 25.4.1, SVG Export Plug-In . SVG Version: 6.00 Build 0)  -->
<svg version="1.1" id="Capa_1" xmlns="http://www.w3.org/2000/svg" xmlns:xlink="http://www.w3.org/1999/xlink" x="0px" y="0px"
	 viewBox="0 0 1516.67 1516.67" style="enable-background:new 0 0 1516.67 1516.67;" xml:space="preserve">
<g>
	<path d="M221.6,1201.94c6.18-8.48,6.18-8.48,34.83-11.83c0-14.67-0.02-29.57,0-44.48c0.03-20.29,3.69-23.97,23.63-24.08
		c14.31-0.08,28.62-0.24,42.94-0.43c0.6-0.01,1.19-0.62,2.96-1.61c0-14.27-0.02-29.2,0-44.13c0.03-19.36,3.91-23.28,23.24-23.5
		c3.12-0.04,6.25-0.01,10.25-0.01c0-114.64,0-228.66,0-344.11c-4.43,0-8.86,0.06-13.28-0.01c-15.24-0.26-20.09-5.01-20.19-20.07
		c-0.1-16-0.02-32-0.02-49.43c-16.61,0-32.2,0.04-47.79-0.01c-17.15-0.06-21.66-4.55-21.72-21.73c-0.07-19.57-0.11-39.14,0.02-58.71
		c0.1-15.1,5.38-21.42,19.97-20.13c18.59,1.64,33-4.95,47.96-15.39c138.62-96.68,277.69-192.72,416.63-288.94
		c16.96-11.75,17.64-11.75,35.05,0.31c142.4,98.6,284.85,197.13,427.09,295.95c8.2,5.69,16.16,8.92,26.07,7.87
		c4.84-0.51,9.79-0.3,14.66-0.01c9.89,0.59,15.81,5.9,15.97,15.79c0.39,23.06,0.41,46.13-0.01,69.18
		c-0.19,10.39-6.08,15.48-16.94,15.73c-16.75,0.39-33.5,0.43-50.25,0.65c-0.27,0-0.52,0.41-2.09,1.7c0,14.16,0.03,29.43-0.01,44.7
		c-0.04,18.1-4.21,22.37-21.96,22.53c-3.75,0.04-7.5,0.01-11.82,0.01c0,114.99,0,228.76,0,344.18c5.62,0,11.08-0.26,16.49,0.05
		c11.87,0.7,17.06,5.96,17.22,17.83c0.22,16.71,0.06,33.42,0.06,51.73c15.81,0,30.7-0.02,45.6,0c20.19,0.03,23.91,3.72,23.95,23.77
		c0.03,14.92,0.01,29.85,0.01,45.79c6.96,0,12.48-0.2,17.98,0.04c10.58,0.46,16.57,5.84,16.72,16.1
		c0.33,22.71,0.32,45.43,0.02,68.14c-0.14,10.25-6.19,15.8-16.53,16.5c-1.74,0.12-3.49,0.04-5.24,0.04
		c-343.08,0-686.16-0.03-1029.25,0.15c-9.56,0.01-17.04-2.23-22.21-10.47C221.6,1255.06,221.6,1228.5,221.6,1201.94z M288.48,606.21
		c313.39,0,626.17,0,939.42,0c0-12.53,0-24.49,0-37.37c-4.89,0-9.01,0-13.13,0c-193.18,0-386.35,0-579.53-0.01
		c-3.84,0-7.73,0.27-11.51-0.23c-8.81-1.17-14.02-6.41-14.14-15.33c-0.12-9,5.24-14.15,13.87-15.64c3.4-0.59,6.97-0.24,10.46-0.24
		c170.12-0.01,340.24-0.01,510.36-0.01c3.95,0,7.91,0,14.34,0c-4.21-3.24-6.03-4.77-7.97-6.11
		C1022.35,442.42,894,353.64,765.84,264.58c-6.12-4.25-9.84-3.53-15.46,0.37C622.75,353.57,495,442,367.29,530.49
		c-2.33,1.61-4.4,3.6-8.39,6.9c6.28,0,10.05,0,13.82,0c60.43,0,120.87,0,181.3,0.01c3.49,0,7.09-0.37,10.45,0.34
		c8.58,1.83,13.68,7.36,13.2,16.26c-0.45,8.29-5.5,13.41-13.85,14.59c-3.43,0.49-6.97,0.25-10.46,0.25
		c-84.19,0.01-168.37,0.01-252.56,0.01c-4.04,0-8.09,0-12.31,0C288.48,582.14,288.48,593.88,288.48,606.21z M496.68,707.77
		c0,115.41,0,229.16,0,344.11c4.9,0,9.33-0.09,13.76,0.02c15.22,0.35,20.17,5.22,20.49,20.16c0.12,5.93,0.03,11.87,0.03,17.81
		c0,10.28,0,20.56,0,30.98c42.59,0,83.27,0,124.71,0c0-17.42-0.17-34.15,0.06-50.87c0.16-11.64,5.65-17.24,17.26-17.96
		c5.47-0.34,10.97-0.06,16.78-0.06c0-115.36,0-229.29,0-344.19c-4.27,0-7.71,0.02-11.14,0c-18.5-0.16-22.94-4.55-22.96-22.76
		c-0.02-15.25,0-30.5,0-46.17c-41.94,0-82.6,0-124.12,0c-0.21,3.92-0.54,7.31-0.56,10.69c-0.07,11.87,0.02,23.75-0.04,35.62
		c-0.08,17.96-4.48,22.44-22.09,22.61C505.08,707.8,501.31,707.77,496.68,707.77z M985.62,639.06c-42.24,0-83.18,0-124.71,0
		c0,17.19,0.14,33.58-0.04,49.97c-0.14,12.84-5.66,18.27-18.57,18.69c-5.09,0.17-10.2,0.03-15.8,0.03c0,115.28,0,228.97,0,343.65
		c3.89,0.18,7.26,0.42,10.65,0.46c19.68,0.27,23.76,4.4,23.77,24.25c0.01,14.86,0,29.72,0,44.76c42.18,0,82.87,0,124.71,0
		c0-4.11,0-7.53,0-10.95c0-12.92-0.18-25.85,0.07-38.76c0.26-13.83,5.3-18.74,19.23-19.24c4.8-0.17,9.61-0.03,14.83-0.03
		c0-115.07,0-229.06,0-343.61c-3.65-0.19-6.72-0.47-9.79-0.5c-20.79-0.24-24.3-3.76-24.33-24.56
		C985.6,668.65,985.62,654.07,985.62,639.06z M253.87,1223.08c0,12.14,0,24.39,0,36.62c336.77,0,672.93,0,1009.12,0
		c0-12.56,0-24.32,0-36.62C926.54,1223.08,590.61,1223.08,253.87,1223.08z M288.49,1190.42c313.38,0,626.15,0,939.38,0
		c0-12.58,0-24.55,0-36.62c-313.56,0-626.32,0-939.38,0C288.49,1166.33,288.49,1178.05,288.49,1190.42z M392.43,708.26
		c0,114.88,0,228.61,0,342.98c24.18,0,47.72,0,71.58,0c0-114.58,0-228.57,0-342.98C440,708.26,416.73,708.26,392.43,708.26z
		 M1052.35,708.25c0,114.86,0,228.64,0,342.97c24.08,0,47.62,0,71.57,0c0-114.6,0-228.55,0-342.97
		C1099.8,708.25,1076.53,708.25,1052.35,708.25z M722.68,708.4c0,114.79,0,228.5,0,342.62c24.07,0,47.52,0,71.22,0
		c0-114.56,0-228.28,0-342.62C770.09,708.4,746.86,708.4,722.68,708.4z M498.79,1084.07c-47.35,0-93.93,0-140.48,0
		c0,12.74,0,24.71,0,36.88c47.19,0,93.48,0,140.48,0C498.79,1108.65,498.79,1096.93,498.79,1084.07z M687.38,1120.65
		c47.77,0,94.64,0,141.51,0c0-12.66,0-24.41,0-36.41c-47.46,0-94.35,0-141.51,0C687.38,1096.63,687.38,1108.11,687.38,1120.65z
		 M1158.68,1084.26c-47.79,0-94.34,0-140.91,0c0,12.66,0,24.38,0,36.59c47.29,0,93.87,0,140.91,0
		C1158.68,1108.37,1158.68,1096.6,1158.68,1084.26z M828.61,675.98c0-12.57,0-24.81,0-37c-47.46,0-94.07,0-140.69,0
		c0,12.73,0,24.71,0,37C735.14,675.98,781.53,675.98,828.61,675.98z M498.76,638.99c-47.33,0-93.91,0-140.48,0
		c0,12.75,0,24.75,0,36.79c47.22,0,93.57,0,140.48,0C498.76,663.22,498.76,651.2,498.76,638.99z M1017.77,675.59
		c47.26,0,93.83,0,140.48,0c0-12.69,0-24.64,0-36.83c-47.18,0-93.47,0-140.48,0C1017.77,651.28,1017.77,663.28,1017.77,675.59z"/>
	<path d="M758.56,398.68c28.01,0.1,50.27,22.69,50.06,50.81c-0.2,27.35-22.73,49.79-50.11,49.9c-27.8,0.12-50.61-22.64-50.58-50.47
		C707.95,420.9,730.44,398.58,758.56,398.68z M777.13,449.2c0.14-10.23-7.88-18.66-18.09-19.03c-10.73-0.39-19.49,7.89-19.62,18.53
		c-0.12,10.12,8.01,18.76,18.08,19.19C767.94,468.35,776.99,459.74,777.13,449.2z"/>
</g>
</svg>
