<?xml version="1.0" encoding="utf-8"?>
<!-- Generator: Adobe Illustrator 25.4.1, SVG Export Plug-In . SVG Version: 6.00 Build 0)  -->
<svg version="1.1" id="Capa_1" xmlns="http://www.w3.org/2000/svg" xmlns:xlink="http://www.w3.org/1999/xlink" x="0px" y="0px"
	 viewBox="0 0 1516.67 1516.67" style="enable-background:new 0 0 1516.67 1516.67;" xml:space="preserve">
<style type="text/css">
	.st0{fill:#1D1D1B;}
</style>
<g>
	<path class="st0" d="M219.09,1204.88c5.93-2.98,11.59-7.11,17.88-8.61c6.22-1.49,13.07-0.33,20.94-0.33c0-5.05,0-8.82,0-12.58
		c0-30.19,0-60.38,0-90.57c0-2.81-0.11-5.63,0.1-8.42c0.83-10.87,6.9-16.95,16.42-16.59c9.02,0.34,14.81,6.29,14.92,16.89
		c0.3,28.78,0.13,57.57,0.15,86.36c0,7.96,0,15.92,0,24.21c14.67,0,27.82,0,42.13,0c0-7.27,0-13.87,0-20.47
		c0-29.14-0.13-58.27,0.04-87.41c0.15-26.15,14.36-40.01,40.65-40.09c8.33-0.02,16.65,0,25.49,0c0-14.32,0-27.51,0-41.27
		c-33.31-3.07-64.7-1.42-89.06,25.82c-7.66,8.57-17.1,9-23.97,2.36c-6.8-6.57-6.45-15.57,1.37-24.19
		c21.41-23.63,48.32-35.42,80.02-36.4c10.15-0.31,20.33-0.05,32.19-0.05c0-4.16,0-7.85,0-11.53c0-28.79-0.06-57.57,0.02-86.36
		c0.06-22.85,10.65-33.54,33.34-33.79c9.41-0.1,18.81-0.02,28.85-0.02c0-24.09,0-47.09,0-70.08c-17.91-3.98-22.88-7.91-22.56-17.85
		c0.31-9.83,5.49-13.62,21.84-16c3.7-15.58,8.15-20.73,17.96-20.02c12.26,0.89,14.8,9.9,15.57,19.78
		c17.12,2.96,22.84,7.32,22.68,17.03c-0.16,9.8-6.51,14.54-22.5,16.37c0,23.15,0,46.38,0,70.19c19.62,0,38.79,0,59.37,0
		c0.19-4.17,0.52-8.19,0.52-12.22c0.03-90.57,0.02-181.14,0.04-271.71c0-4.21-0.22-8.49,0.48-12.6c1.27-7.47,6.11-11.67,13.65-12.34
		c7.48-0.66,13.37,2.38,15.74,9.55c1.5,4.53,1.64,9.64,1.64,14.5c0.09,90.92,0.07,181.84,0.07,272.76c0,3.78,0,7.56,0,11.99
		c72.57,0,144,0,216.24,0c0-142.34,0-284.26,0-426.93c-71.72,0-143.14,0-216.25,0c0,8.03,0,15.94,0,23.85
		c-0.01,14.74,0.23,29.49-0.1,44.23c-0.26,11.3-6.95,18.18-16.43,17.84c-9.16-0.33-14.87-6.84-14.99-17.93
		c-0.2-18.6-0.07-37.21-0.07-55.82c0-3.78,0-7.56,0-11.92c-11.78-1.5-24.63-0.95-24.81-17.02c-0.11-9.9,4.73-13.15,24.21-16.88
		c0-19.37,0-38.86,0-59.23c-3.69-0.33-7.08-0.49-10.43-0.96c-8.46-1.18-13.31-6.12-13.75-14.62c-0.44-8.55,4.01-13.99,12.26-15.92
		c3.36-0.79,6.96-0.81,10.44-0.81c94.78-0.04,189.56-0.05,284.35,0.02c3.82,0,7.79,0.18,11.43,1.2c7.78,2.19,11.5,7.94,10.97,15.84
		c-0.53,7.92-5,12.95-13.03,14.2c-3.09,0.48-6.27,0.44-10.39,0.69c0,19.84,0,39.59,0,60.08c10.75,1.27,23.24,1.47,23.45,17.23
		c0.13,9.84-5.69,13.69-23.61,16.16c0,41.09,0,82.3,0,124.51c2.76,0.22,5.76,0.67,8.77,0.68c16.5,0.07,33.03,0.66,49.49-0.12
		c22.27-1.06,39.64,6.94,55.09,23.06c32.29,33.68,65.71,66.27,100.14,100.78c0-23.6,0-45.27,0-67.01
		c-15.61-3.05-21.32-7.45-21.49-16.69c-0.17-9.36,5.65-14.02,21.85-17.11c0-17.93,0-35.99,0-54.45c-2.02-0.18-3.71-0.32-5.39-0.49
		c-10.18-1.08-16.45-7.03-16.49-15.64c-0.04-8.99,6.93-15.82,17.41-15.84c65.65-0.15,131.29-0.15,196.94-0.02
		c10.72,0.02,17.5,6.34,17.71,15.44c0.21,9.17-5.96,15.01-16.97,16.09c-1.35,0.13-2.71,0.29-4.6,0.49c0,18.27,0,36.34,0,54.3
		c16.45,3.45,21.65,7.69,21.52,17.24c-0.14,9.55-5.9,14.13-21.35,16.49c0,199.38,0,398.87,0,599.74c13.72,0,27.3-0.08,40.88,0.02
		c12.41,0.09,19.56,5.89,19.52,15.57c-0.04,9.68-7.23,15.57-19.54,15.98c-2.1,0.07-4.21,0.02-6.32,0.02
		c-342.27,0-684.54-0.02-1026.81,0.1c-10.2,0-19.55-0.73-25.82-10.1C219.09,1213.31,219.09,1209.1,219.09,1204.88z M430.88,873.44
		c0,108.23,0,215.01,0,321.58c71.25,0,141.58,0,212.82,0c0-4.7,0-8.51,0-12.32c0-30.54-0.08-61.09,0.04-91.63
		c0.06-15.71,5.27-20.92,20.79-20.92c74.43-0.04,148.86-0.05,223.29,0.01c14.93,0.01,20.25,5.37,20.29,20.28
		c0.07,31.25,0.01,62.49,0.05,93.74c0,3.69,0.33,7.38,0.49,10.88c71.57,0,141.9,0,212.51,0c0-107.43,0-214,0-321.62
		c-4.82,0-8.97,0-13.12,0c-44.24-0.01-88.47,0.09-132.71-0.09c-11.38-0.05-18.55-6.58-18.59-15.81
		c-0.04-9.25,7.09-15.48,18.54-15.64c14.74-0.2,29.49-0.06,44.24-0.06c9.67,0,19.35,0,29.54,0c0-8.38,0.58-15.1-0.21-21.66
		c-0.49-4.13-2-9.03-4.8-11.85c-52.42-52.83-105.09-105.42-157.79-157.98c-2.14-2.13-5.02-4.87-7.63-4.96
		c-14.62-0.48-29.27-0.23-44.18-0.23c0,66.04,0,130.8,0,196.68c4.81,0,8.94-0.01,13.08,0c20.71,0.04,41.43-0.11,62.14,0.23
		c8.96,0.15,14.32,5.32,15.21,14.32c0.85,8.66-4.73,15.25-14,16.63c-3.79,0.57-7.7,0.41-11.56,0.41
		c-151.32,0.02-302.63,0.01-453.95,0.01C440.79,873.44,436.26,873.44,430.88,873.44z M1081.19,841.96c15.25,0,29.59-0.39,43.9,0.1
		c16.31,0.56,26.55,10.72,28.03,26.98c0.38,4.18,0.3,8.41,0.3,12.62c0.01,99.64,0.01,199.28,0.01,298.93c0,3.16-0.67,6.55,0.28,9.4
		c0.76,2.3,3.44,5.58,5.36,5.64c14.96,0.47,29.93,0.26,45.05,0.26c0-200.82,0-400.25,0-599.94c-41.28,0-81.83,0-122.93,0
		C1081.19,677.78,1081.19,759.05,1081.19,841.96z M676.01,1195.14c67.09,0,133.47,0,199.74,0c0-31.45,0-62.11,0-92.86
		c-66.91,0-133.05,0-199.74,0C676.01,1133.46,676.01,1164.08,676.01,1195.14z M585.61,381.17c72.64,0,144.02,0,215.56,0
		c0-20.45,0-40.15,0-59.82c-72.34,0-143.73,0-215.56,0C585.61,341.55,585.61,361.04,585.61,381.17z M1046.18,766.98
		c0.95-0.58,1.9-1.16,2.86-1.74c0-15.7-0.36-31.42,0.16-47.11c0.23-6.97-2.23-11.65-7.04-16.41
		c-36.14-35.8-72.87-71.06-107.64-108.16c-15.79-16.85-32.27-24.98-55.24-22.54c-14.78,1.57-29.86,0.3-44.89,0.3
		c0,14.8,0,27.96,0,42.13c16.01,0,31.37,0.32,46.71-0.12c9.1-0.26,15.98,2.79,22.38,9.26c39.51,39.87,79.33,79.44,118.94,119.2
		C1030.57,749.97,1038.27,758.57,1046.18,766.98z M1081.02,562.81c41.87,0,82.58,0,123.22,0c0-18.69,0-36.42,0-54.47
		c-41.35,0-82.09,0-123.22,0C1081.02,526.77,1081.02,544.54,1081.02,562.81z M397.74,1195.37c0-38.9,0-77.23,0-116.62
		c-8.23,0-15.89,0.42-23.48-0.11c-8.09-0.57-11.25,2.19-11.16,10.64c0.36,32.96,0.13,65.92,0.2,98.88c0.01,2.34,0.69,4.67,1.08,7.2
		C375.67,1195.37,386.39,1195.37,397.74,1195.37z"/>
	<path class="st0" d="M776.28,912.59c87.4,0,174.8-0.01,262.21,0c20.01,0,24.07,4.04,24.09,24c0.03,21.06,0.09,42.12-0.02,63.18
		c-0.08,15.78-5.21,21.25-20.6,21.26c-177.26,0.07-354.52,0.07-531.79,0.01c-15.53-0.01-21.03-5.62-21.1-20.95
		c-0.1-21.41-0.05-42.82-0.02-64.24c0.02-18.45,4.73-23.25,22.91-23.25C600.07,912.58,688.18,912.59,776.28,912.59z M580.18,944.95
		c-20.38,0-39.5,0-58.88,0c0,14.96,0,29.15,0,43.55c20,0,39.34,0,58.88,0C580.18,973.6,580.18,959.69,580.18,944.95z M759.39,988.95
		c0-15.28,0-29.68,0-43.88c-19.59,0-38.26,0-56.86,0c0,15.05,0,29.21,0,43.88C721.65,988.95,740.06,988.95,759.39,988.95z
		 M1030.34,945.11c-19.97,0-39.27,0-58.37,0c0,15.11,0,29.28,0,43.66c19.81,0,38.88,0,58.37,0
		C1030.34,973.85,1030.34,959.66,1030.34,945.11z M882.22,944.73c0,15.36,0,29.53,0,43.96c19.44,0,38.12,0,56.78,0
		c0-15.02,0-29.23,0-43.96C919.95,944.73,901.54,944.73,882.22,944.73z M669.33,988.88c0-15.05,0-29.49,0-43.9
		c-19.28,0-37.68,0-56.26,0c0,15,0,29.2,0,43.9C632.21,988.88,650.61,988.88,669.33,988.88z M849.21,944.93
		c-19.28,0-37.91,0-56.79,0c0,14.93,0,29.11,0,43.8c19.16,0,37.77,0,56.79,0C849.21,973.8,849.21,959.63,849.21,944.93z"/>
</g>
</svg>
