<?xml version="1.0" encoding="utf-8"?>
<!-- Generator: Adobe Illustrator 25.4.1, SVG Export Plug-In . SVG Version: 6.00 Build 0)  -->
<svg version="1.1" id="Capa_1" xmlns="http://www.w3.org/2000/svg" xmlns:xlink="http://www.w3.org/1999/xlink" x="0px" y="0px"
	 viewBox="0 0 1516.67 1516.67" style="enable-background:new 0 0 1516.67 1516.67;" xml:space="preserve">
<g>
	<path d="M1282.4,1040.97c-4.29,8.77-7.5,18.3-13.09,26.14c-13.15,18.47-32.51,24.72-54.46,24.7
		c-57.63-0.05-115.26-0.02-172.89-0.02c-4.04,0-8.08,0-13.54,0c0,4.66,0.05,8.61-0.01,12.56c-0.37,24.87,0.74,49.89-1.54,74.58
		c-2.69,29.11-27.41,50.63-56.49,52.48c-2.38,0.15-4.77,0.22-7.15,0.22c-136.06,0.01-272.13,0.06-408.19-0.03
		c-32.54-0.02-56.22-16.82-63.74-45.37c-1.88-7.16-2.46-14.82-2.55-22.26c-0.31-23.5-0.12-47.01-0.12-72.19c-4.41,0-8.32,0-12.23,0
		c-56.95,0-113.9,0.01-170.85,0c-46.27-0.01-70.9-24.5-70.91-70.46c-0.01-80.15,1.24-160.33-0.33-240.45
		c-1.82-92.88,61.13-165,140.65-181.42c1.57-0.32,3.11-0.83,4.76-1.28c-8.95-12.47-18.32-24.11-26.13-36.71
		c-14.96-24.15-22.99-50.76-24.86-79.13c-0.92-13.94,3.82-21.32,13.71-22.26c9.58-0.91,16,6.3,17.2,19.71
		c3.78,42.39,20.65,78.37,54.11,105.09c48.05,38.37,101.08,45.88,158.32,22.85c7.39-2.97,10.06-8.19,10.83-15.64
		c4.65-45.11,23.16-83.64,55.7-115.28c5.36-5.22,12.19-9.13,16.74-14.91c3.38-4.29,6.52-11,5.74-16
		c-17.42-112.23-145.23-166.48-237.87-101.07c-22.4,15.82-39.48,36.41-50.41,61.8c-1.88,4.38-3.64,8.83-5.85,13.04
		c-4.6,8.76-12.37,11.89-20.37,8.52c-7.76-3.27-11.15-11.36-8.01-20.54c9.43-27.62,24.85-51.56,46.07-71.48
		c104.23-97.84,271.74-47.37,304.94,91.76c2.94,12.34,2.98,12.35,14.82,8.24c40.75-14.16,81.57-14.35,122.15,0.32
		c9.07,3.28,12.08,1.6,14.52-7.97c19.25-75.46,67.52-122,143.08-139.47c33.64-7.78,67.11-4.04,99.48,8.09
		c9.94,3.72,14.23,11.45,11.44,19.74c-2.88,8.55-10.71,12.86-20.62,9.64c-20.6-6.69-41.4-10.87-63.21-9.9
		c-70.1,3.1-132.54,59.78-142.04,129.09c-0.97,7.07,0.72,12.53,6.51,17.03c42.29,32.85,66.25,76.06,72.04,129.23
		c0.98,9.04,5.45,13.72,13.6,17c91.36,36.77,192.01-18.9,207.96-116.22c7.97-48.65-6.02-91.71-39.32-128.28
		c-2.52-2.77-5.35-5.29-7.72-8.18c-6.11-7.45-5.99-16.18,0.1-22.07c5.93-5.75,15.19-5.7,22.12,0.73
		c19.01,17.63,34.13,38.28,43.47,62.43c28.09,72.57,16.01,138.25-35.36,196.7c-1.55,1.76-3.1,3.52-3.53,4
		c18.97,9.63,39.08,17.43,56.54,29.17c42.61,28.64,67.26,69.46,74.94,120.37c0.35,2.3,1.23,4.53,1.87,6.79
		C1282.4,849.94,1282.4,945.45,1282.4,1040.97z M488.62,1060.4c0-4.84,0-7.87,0-10.9c0-44-0.31-88,0.18-132
		c0.16-13.9,1.5-27.95,3.99-41.62c4.7-25.88,15.92-49.15,31.86-70.06c6.2-8.13,15.21-9.75,22.38-4.62
		c7.04,5.05,8.32,12.97,3.43,21.74c-1.16,2.08-2.43,4.11-3.83,6.04c-19.05,26.43-26.68,56.35-26.72,88.47
		c-0.09,82.54-0.11,165.09,0.02,247.63c0.04,24.14,11.78,35.51,36.04,35.51c135.05,0.02,270.1,0.02,405.14,0
		c24.12,0,35.94-11.49,35.98-35.63c0.12-83.22,0.52-166.45-0.1-249.67c-0.52-70.11-42.6-125.46-107.85-143.1
		c-13.59-3.67-27.17-7.4-41.66-0.25c-54.55,26.92-109.35,26.25-164.45,0.54c-8.42-3.93-18.96-4.81-28.46-4.58
		c-21.07,0.53-40.7,7.18-59.34,17.08c-10.46,5.56-19.83,3.23-24-4.96c-4.41-8.66-0.58-17.68,10.57-22.97
		c9.82-4.66,19.9-8.81,30.06-12.7c15.15-5.8,17.3-11.87,7.57-25.1c-13.46-18.3-23.7-38.11-30.02-59.96
		c-5.56-19.22-8.16-20.6-27.6-14.95c-42.63,12.39-84.83,10.36-124.57-8.85c-20.21-9.77-39.21-9.46-59.24-4.57
		c-68.12,16.63-112.05,73.28-112.27,144.84c-0.25,81.86-0.07,163.72-0.06,245.58c0,28.4,10.52,39.01,38.77,39.03
		c57.29,0.03,114.59,0.01,171.88,0.01C480,1060.4,483.68,1060.4,488.62,1060.4z M893.23,739.78c2.19,1.19,2.99,1.86,3.9,2.1
		c71.75,18.42,133.42,85.69,131.43,179.39c-0.9,42.61-0.16,85.25-0.13,127.87c0,3.57,0.31,7.14,0.49,10.96
		c65.34,0,129.42,0.36,193.49-0.23c18.02-0.17,28.85-13.53,28.88-33c0.13-84.91,0.77-169.83-0.18-254.73
		c-0.83-74.26-51.25-131.36-124.64-143.84c-8.95-1.52-17.07-0.56-25.55,3.73c-39.47,19.98-80.95,24.93-124.04,14.33
		c-10.06-2.48-19.94-5.72-30.56-8.81C939.34,677.37,921.9,711.02,893.23,739.78z M765.91,457
		c-85.22,0.69-153.13,68.22-152.48,151.63c0.67,86.14,68.81,152.85,155.26,152.01c80.54-0.79,149.24-70.43,148.61-150.65
		C916.64,524.79,848.89,456.32,765.91,457z"/>
</g>
</svg>
