<?xml version="1.0" encoding="utf-8"?>
<!-- Generator: Adobe Illustrator 25.4.1, SVG Export Plug-In . SVG Version: 6.00 Build 0)  -->
<svg version="1.1" id="Capa_1" xmlns="http://www.w3.org/2000/svg" xmlns:xlink="http://www.w3.org/1999/xlink" x="0px" y="0px"
	 viewBox="0 0 1516.7 1516.7" style="enable-background:new 0 0 1516.7 1516.7;" xml:space="preserve">
<g>
	<path d="M1316.7,762.8l-0.2-17.3c-0.8-74.6-54.6-139.9-128.1-155.1c-9.9-2.1-20-3.1-29.7-4.1c-0.4,0-0.8-0.1-1.2-0.1
		c-12.3-98.6-54.9-182.2-126.7-248.4c-76.1-70.2-167.4-106-271.4-106.5c-86,0.1-165.4,24.7-234.4,74.7
		c-94.5,68.5-150.2,162.7-166,280.3c-72.8,2.6-134.4,51-153.5,120.9c-1.4,5.1-2.6,10.2-3.7,15.4l-1.5,6.7l-0.4,128.7l0.6,4.3
		c1.2,4,2.2,8,3.2,12c2.4,9.6,5,19.5,9.2,29.1c28.4,65.8,87.6,101.9,164.7,101.9c10,0,20.3-0.6,30.9-1.8
		c32.7-3.8,47.2-20.9,47.2-55.6l0-85.6c0-74.6-0.1-149.3,0.2-223.9c0.1-17.7,0.6-36.4,4-54c25.2-129.4,99.8-211.3,221.7-243.3
		c122.8-32.3,228.1,2.2,312.8,102.7c44.4,52.7,66.9,117.2,66.8,191.8c-0.1,105.3-0.1,210.7,0,316c0,31.9,19.7,51.9,51.3,52l8.5,0.1
		c14.4,0.1,29.4,0.2,44.3-0.6c75.7-4.1,141.1-64.8,148.9-138.1C1317.6,830.8,1317.1,796.3,1316.7,762.8z M1283.1,861.6
		c-6.2,58.6-58.8,107.1-119.7,110.4c-14,0.7-28.5,0.6-42.4,0.5l-8.6-0.1c-14.3-0.1-20.4-6.4-20.4-21c-0.1-105.3-0.1-210.6,0-315.9
		c0.1-82.1-24.9-153.4-74.1-211.8C926.2,314.8,807,275.8,673.5,310.9c-132.6,34.9-217.1,127.4-244.3,267.5
		c-3.9,20.1-4.5,40.7-4.6,59.8c-0.3,74.7-0.2,149.4-0.2,224l0,85.6c0,20.2-4,22.9-19.7,24.7C359,978,277.2,974.3,241.2,891
		c-3.2-7.4-5.3-15.7-7.6-24.5c-0.9-3.6-1.8-7.2-2.9-10.8V734.6l1.2-5.2c1.1-4.7,2.1-9.4,3.4-14c15.6-57,66.1-96.4,125.6-98.1
		c2.4-0.1,4.9,0,7.5,0l18.3,0l1.5-13.9c12.1-114.9,64.2-206.5,154.9-272.2c63.5-46,136-69.5,216-68.8c96,0.5,180.3,33.6,250.5,98.3
		c69.1,63.7,108.8,144.8,118.3,241.1l1.2,12.4l12.4,1.5c4.8,0.6,9.5,1.1,14.1,1.5c9.3,0.9,18.2,1.8,26.5,3.6
		c58.3,12.1,102.7,65.9,103.4,125l0.2,17.4C1286,795.8,1286.5,829.4,1283.1,861.6z"/>
	<path d="M803.4,1118.7c-29-1.1-59.3-1.1-90.1,0c-45.2,1.6-81.2,39.5-80.3,84.5c0.9,45.7,36.3,81,82.2,82c9.9,0.2,19.7,0.2,29.6,0.1
		l13.2-0.1l12.4,0.1c4.7,0,9.4,0.1,14.2,0.1c5.4,0,10.7,0,16.1-0.2c45.8-1,81.4-36,82.6-81.5
		C884.6,1158.5,848.8,1120.4,803.4,1118.7z M800,1254.2c-9.8,0.2-19.7,0.1-29.4,0.1l-12.6-0.1l-13.3,0.1c-9.6,0-19.1,0.1-28.7-0.1
		c-29-0.6-51.3-22.8-51.9-51.6c-0.6-28.1,22-51.8,50.3-52.8c30-1.1,59.6-1,87.9,0c28.4,1.1,50.8,24.9,50,53
		C851.4,1231.5,829,1253.6,800,1254.2z"/>
	<path d="M395.7,1027.7c-11.4,0-23.4,0-36.3,0c13.5,107,119.6,206.7,251.7,191.9c0-11.9,0-23.8,0-36.5
		C500,1186.6,427.5,1135.8,395.7,1027.7z"/>
</g>
</svg>
